<mxfile host="65bd71144e">
    <diagram id="YHsBcDmXLhq998eM9acF" name="Page-1">
        <mxGraphModel dx="1451" dy="909" grid="1" gridSize="10" guides="1" tooltips="1" connect="1" arrows="1" fold="1" page="1" pageScale="1" pageWidth="827" pageHeight="1169" math="0" shadow="0">
            <root>
                <mxCell id="0"/>
                <mxCell id="1" parent="0"/>
                <mxCell id="3" value="" style="sketch=0;aspect=fixed;pointerEvents=1;shadow=0;dashed=0;html=1;strokeColor=none;labelPosition=center;verticalLabelPosition=bottom;verticalAlign=top;align=center;fillColor=#00188D;shape=mxgraph.azure.mobile" vertex="1" parent="1">
                    <mxGeometry x="80" y="455" width="35" height="50" as="geometry"/>
                </mxCell>
                <mxCell id="4" value="AWS Cloud" style="points=[[0,0],[0.25,0],[0.5,0],[0.75,0],[1,0],[1,0.25],[1,0.5],[1,0.75],[1,1],[0.75,1],[0.5,1],[0.25,1],[0,1],[0,0.75],[0,0.5],[0,0.25]];outlineConnect=0;gradientColor=none;html=1;whiteSpace=wrap;fontSize=12;fontStyle=0;container=1;pointerEvents=0;collapsible=0;recursiveResize=0;shape=mxgraph.aws4.group;grIcon=mxgraph.aws4.group_aws_cloud_alt;strokeColor=#232F3E;fillColor=none;verticalAlign=top;align=left;spacingLeft=30;fontColor=#232F3E;dashed=0;" vertex="1" parent="1">
                    <mxGeometry x="160" y="200" width="964.5" height="780" as="geometry"/>
                </mxCell>
                <mxCell id="5" value="" style="sketch=0;points=[[0,0,0],[0.25,0,0],[0.5,0,0],[0.75,0,0],[1,0,0],[0,1,0],[0.25,1,0],[0.5,1,0],[0.75,1,0],[1,1,0],[0,0.25,0],[0,0.5,0],[0,0.75,0],[1,0.25,0],[1,0.5,0],[1,0.75,0]];outlineConnect=0;fontColor=#232F3E;fillColor=#7AA116;strokeColor=#ffffff;dashed=0;verticalLabelPosition=bottom;verticalAlign=top;align=center;html=1;fontSize=12;fontStyle=0;aspect=fixed;shape=mxgraph.aws4.resourceIcon;resIcon=mxgraph.aws4.s3;" vertex="1" parent="4">
                    <mxGeometry x="442.5" y="80" width="78" height="78" as="geometry"/>
                </mxCell>
                <mxCell id="6" style="edgeStyle=orthogonalEdgeStyle;rounded=0;orthogonalLoop=1;jettySize=auto;html=1;" edge="1" parent="4" source="7" target="5">
                    <mxGeometry relative="1" as="geometry"/>
                </mxCell>
                <mxCell id="7" value="" style="sketch=0;points=[[0,0,0],[0.25,0,0],[0.5,0,0],[0.75,0,0],[1,0,0],[0,1,0],[0.25,1,0],[0.5,1,0],[0.75,1,0],[1,1,0],[0,0.25,0],[0,0.5,0],[0,0.75,0],[1,0.25,0],[1,0.5,0],[1,0.75,0]];outlineConnect=0;fontColor=#232F3E;fillColor=#8C4FFF;strokeColor=#ffffff;dashed=0;verticalLabelPosition=bottom;verticalAlign=top;align=center;html=1;fontSize=10;fontStyle=0;aspect=fixed;shape=mxgraph.aws4.resourceIcon;resIcon=mxgraph.aws4.cloudfront;" vertex="1" parent="4">
                    <mxGeometry x="282.5" y="80" width="78" height="78" as="geometry"/>
                </mxCell>
                <mxCell id="8" value="" style="sketch=0;points=[[0,0,0],[0.25,0,0],[0.5,0,0],[0.75,0,0],[1,0,0],[0,1,0],[0.25,1,0],[0.5,1,0],[0.75,1,0],[1,1,0],[0,0.25,0],[0,0.5,0],[0,0.75,0],[1,0.25,0],[1,0.5,0],[1,0.75,0]];outlineConnect=0;fontColor=#232F3E;fillColor=#7AA116;strokeColor=#ffffff;dashed=0;verticalLabelPosition=bottom;verticalAlign=top;align=center;html=1;fontSize=12;fontStyle=0;aspect=fixed;shape=mxgraph.aws4.resourceIcon;resIcon=mxgraph.aws4.s3;" vertex="1" parent="4">
                    <mxGeometry x="601.5" y="399" width="78" height="78" as="geometry"/>
                </mxCell>
                <mxCell id="9" value="&lt;font style=&quot;font-size: 16px;&quot;&gt;Cloudfront&lt;/font&gt;" style="text;html=1;align=center;verticalAlign=middle;resizable=0;points=[];autosize=1;strokeColor=none;fillColor=none;" vertex="1" parent="4">
                    <mxGeometry x="271.5" y="158" width="100" height="30" as="geometry"/>
                </mxCell>
                <mxCell id="10" value="&lt;font style=&quot;font-size: 16px;&quot;&gt;S3&lt;/font&gt;" style="text;html=1;align=center;verticalAlign=middle;resizable=0;points=[];autosize=1;strokeColor=none;fillColor=none;" vertex="1" parent="4">
                    <mxGeometry x="461.5" y="158" width="40" height="30" as="geometry"/>
                </mxCell>
                <mxCell id="11" value="&lt;font style=&quot;font-size: 16px;&quot;&gt;S3&lt;/font&gt;" style="text;html=1;align=center;verticalAlign=middle;resizable=0;points=[];autosize=1;strokeColor=none;fillColor=none;" vertex="1" parent="4">
                    <mxGeometry x="615.5" y="477" width="40" height="30" as="geometry"/>
                </mxCell>
                <mxCell id="12" value="&lt;span style=&quot;font-size: 16px;&quot;&gt;静的ホスティング&lt;/span&gt;" style="text;html=1;align=center;verticalAlign=middle;resizable=0;points=[];autosize=1;strokeColor=none;fillColor=none;" vertex="1" parent="4">
                    <mxGeometry x="406.5" y="50" width="150" height="30" as="geometry"/>
                </mxCell>
                <mxCell id="13" value="&lt;span style=&quot;font-size: 16px;&quot;&gt;生成AIの&lt;br&gt;画像、音声データ&lt;/span&gt;" style="text;html=1;align=center;verticalAlign=middle;resizable=0;points=[];autosize=1;strokeColor=none;fillColor=none;" vertex="1" parent="4">
                    <mxGeometry x="565.5" y="349" width="150" height="50" as="geometry"/>
                </mxCell>
                <mxCell id="14" value="" style="sketch=0;points=[[0,0,0],[0.25,0,0],[0.5,0,0],[0.75,0,0],[1,0,0],[0,1,0],[0.25,1,0],[0.5,1,0],[0.75,1,0],[1,1,0],[0,0.25,0],[0,0.5,0],[0,0.75,0],[1,0.25,0],[1,0.5,0],[1,0.75,0]];outlineConnect=0;fontColor=#232F3E;fillColor=#C925D1;strokeColor=#ffffff;dashed=0;verticalLabelPosition=bottom;verticalAlign=top;align=center;html=1;fontSize=12;fontStyle=0;aspect=fixed;shape=mxgraph.aws4.resourceIcon;resIcon=mxgraph.aws4.dynamodb;" vertex="1" parent="4">
                    <mxGeometry x="440.5" y="399" width="78" height="78" as="geometry"/>
                </mxCell>
                <mxCell id="15" value="&lt;span style=&quot;font-size: 16px;&quot;&gt;生成AIデータ&lt;/span&gt;" style="text;html=1;align=center;verticalAlign=middle;resizable=0;points=[];autosize=1;strokeColor=none;fillColor=none;" vertex="1" parent="4">
                    <mxGeometry x="419.5" y="369" width="120" height="30" as="geometry"/>
                </mxCell>
                <mxCell id="16" value="&lt;font style=&quot;font-size: 16px;&quot;&gt;DynamoDB&lt;/font&gt;" style="text;html=1;align=center;verticalAlign=middle;resizable=0;points=[];autosize=1;strokeColor=none;fillColor=none;" vertex="1" parent="4">
                    <mxGeometry x="419.5" y="477" width="110" height="30" as="geometry"/>
                </mxCell>
                <mxCell id="17" value="&lt;font style=&quot;font-size: 16px;&quot;&gt;user_id&lt;br&gt;date&lt;br&gt;title&lt;br&gt;body&lt;br&gt;&lt;/font&gt;" style="text;html=1;align=center;verticalAlign=middle;resizable=0;points=[];autosize=1;strokeColor=none;fillColor=none;" vertex="1" parent="4">
                    <mxGeometry x="440" y="669" width="80" height="90" as="geometry"/>
                </mxCell>
                <mxCell id="18" value="&lt;font style=&quot;font-size: 16px;&quot;&gt;user_id&lt;br&gt;generated_text&lt;br&gt;genetated_image_link&lt;br&gt;generated_melody_link&lt;br&gt;&lt;/font&gt;" style="text;html=1;align=center;verticalAlign=middle;resizable=0;points=[];autosize=1;strokeColor=none;fillColor=none;" vertex="1" parent="4">
                    <mxGeometry x="384.5" y="279" width="190" height="90" as="geometry"/>
                </mxCell>
                <mxCell id="19" value="" style="sketch=0;points=[[0,0,0],[0.25,0,0],[0.5,0,0],[0.75,0,0],[1,0,0],[0,1,0],[0.25,1,0],[0.5,1,0],[0.75,1,0],[1,1,0],[0,0.25,0],[0,0.5,0],[0,0.75,0],[1,0.25,0],[1,0.5,0],[1,0.75,0]];outlineConnect=0;fontColor=#232F3E;fillColor=#8C4FFF;strokeColor=#ffffff;dashed=0;verticalLabelPosition=bottom;verticalAlign=top;align=center;html=1;fontSize=12;fontStyle=0;aspect=fixed;shape=mxgraph.aws4.resourceIcon;resIcon=mxgraph.aws4.api_gateway;" vertex="1" parent="4">
                    <mxGeometry x="120" y="480" width="78" height="78" as="geometry"/>
                </mxCell>
                <mxCell id="20" style="edgeStyle=orthogonalEdgeStyle;rounded=0;orthogonalLoop=1;jettySize=auto;html=1;" edge="1" parent="4" source="21" target="22">
                    <mxGeometry relative="1" as="geometry"/>
                </mxCell>
                <mxCell id="21" value="" style="sketch=0;points=[[0,0,0],[0.25,0,0],[0.5,0,0],[0.75,0,0],[1,0,0],[0,1,0],[0.25,1,0],[0.5,1,0],[0.75,1,0],[1,1,0],[0,0.25,0],[0,0.5,0],[0,0.75,0],[1,0.25,0],[1,0.5,0],[1,0.75,0]];outlineConnect=0;fontColor=#232F3E;fillColor=#ED7100;strokeColor=#ffffff;dashed=0;verticalLabelPosition=bottom;verticalAlign=top;align=center;html=1;fontSize=12;fontStyle=0;aspect=fixed;shape=mxgraph.aws4.resourceIcon;resIcon=mxgraph.aws4.lambda;" vertex="1" parent="4">
                    <mxGeometry x="281" y="561" width="78" height="78" as="geometry"/>
                </mxCell>
                <mxCell id="22" value="" style="sketch=0;points=[[0,0,0],[0.25,0,0],[0.5,0,0],[0.75,0,0],[1,0,0],[0,1,0],[0.25,1,0],[0.5,1,0],[0.75,1,0],[1,1,0],[0,0.25,0],[0,0.5,0],[0,0.75,0],[1,0.25,0],[1,0.5,0],[1,0.75,0]];outlineConnect=0;fontColor=#232F3E;fillColor=#C925D1;strokeColor=#ffffff;dashed=0;verticalLabelPosition=bottom;verticalAlign=top;align=center;html=1;fontSize=12;fontStyle=0;aspect=fixed;shape=mxgraph.aws4.resourceIcon;resIcon=mxgraph.aws4.dynamodb;" vertex="1" parent="4">
                    <mxGeometry x="441" y="561" width="78" height="78" as="geometry"/>
                </mxCell>
                <mxCell id="23" style="edgeStyle=orthogonalEdgeStyle;rounded=0;orthogonalLoop=1;jettySize=auto;html=1;" edge="1" parent="4" source="24">
                    <mxGeometry relative="1" as="geometry">
                        <mxPoint x="1001" y="600" as="targetPoint"/>
                    </mxGeometry>
                </mxCell>
                <mxCell id="24" value="" style="sketch=0;points=[[0,0,0],[0.25,0,0],[0.5,0,0],[0.75,0,0],[1,0,0],[0,1,0],[0.25,1,0],[0.5,1,0],[0.75,1,0],[1,1,0],[0,0.25,0],[0,0.5,0],[0,0.75,0],[1,0.25,0],[1,0.5,0],[1,0.75,0]];outlineConnect=0;fontColor=#232F3E;fillColor=#ED7100;strokeColor=#ffffff;dashed=0;verticalLabelPosition=bottom;verticalAlign=top;align=center;html=1;fontSize=12;fontStyle=0;aspect=fixed;shape=mxgraph.aws4.resourceIcon;resIcon=mxgraph.aws4.lambda;" vertex="1" parent="4">
                    <mxGeometry x="601" y="561" width="78" height="78" as="geometry"/>
                </mxCell>
                <mxCell id="25" style="edgeStyle=orthogonalEdgeStyle;rounded=0;orthogonalLoop=1;jettySize=auto;html=1;entryX=0;entryY=0.5;entryDx=0;entryDy=0;entryPerimeter=0;" edge="1" parent="4" source="19" target="21">
                    <mxGeometry relative="1" as="geometry"/>
                </mxCell>
                <mxCell id="26" value="&lt;font style=&quot;font-size: 16px;&quot;&gt;API Gateway&lt;/font&gt;" style="text;html=1;align=center;verticalAlign=middle;resizable=0;points=[];autosize=1;strokeColor=none;fillColor=none;" vertex="1" parent="4">
                    <mxGeometry x="99" y="558" width="120" height="30" as="geometry"/>
                </mxCell>
                <mxCell id="27" value="&lt;font style=&quot;font-size: 16px;&quot;&gt;Lambda&lt;/font&gt;" style="text;html=1;align=center;verticalAlign=middle;resizable=0;points=[];autosize=1;strokeColor=none;fillColor=none;" vertex="1" parent="4">
                    <mxGeometry x="280" y="639" width="80" height="30" as="geometry"/>
                </mxCell>
                <mxCell id="28" value="&lt;font style=&quot;font-size: 16px;&quot;&gt;DynamoDB&lt;/font&gt;" style="text;html=1;align=center;verticalAlign=middle;resizable=0;points=[];autosize=1;strokeColor=none;fillColor=none;" vertex="1" parent="4">
                    <mxGeometry x="425" y="639" width="110" height="30" as="geometry"/>
                </mxCell>
                <mxCell id="29" value="&lt;font style=&quot;font-size: 16px;&quot;&gt;Lambda&lt;/font&gt;" style="text;html=1;align=center;verticalAlign=middle;resizable=0;points=[];autosize=1;strokeColor=none;fillColor=none;" vertex="1" parent="4">
                    <mxGeometry x="600" y="639" width="80" height="30" as="geometry"/>
                </mxCell>
                <mxCell id="30" value="&lt;span style=&quot;font-size: 16px;&quot;&gt;日記&lt;/span&gt;" style="text;html=1;align=center;verticalAlign=middle;resizable=0;points=[];autosize=1;strokeColor=none;fillColor=none;" vertex="1" parent="4">
                    <mxGeometry x="450" y="535" width="60" height="30" as="geometry"/>
                </mxCell>
                <mxCell id="31" style="edgeStyle=orthogonalEdgeStyle;rounded=0;orthogonalLoop=1;jettySize=auto;html=1;entryX=0;entryY=0.5;entryDx=0;entryDy=0;entryPerimeter=0;" edge="1" parent="4" source="22" target="24">
                    <mxGeometry relative="1" as="geometry"/>
                </mxCell>
                <mxCell id="32" value="&lt;span style=&quot;font-size: 16px;&quot;&gt;生成AI&lt;/span&gt;" style="text;html=1;align=center;verticalAlign=middle;resizable=0;points=[];autosize=1;strokeColor=none;fillColor=none;" vertex="1" parent="4">
                    <mxGeometry x="1008" y="641" width="70" height="30" as="geometry"/>
                </mxCell>
                <mxCell id="33" value="" style="shape=image;verticalLabelPosition=bottom;labelBackgroundColor=default;verticalAlign=top;aspect=fixed;imageAspect=0;image=https://logosandtypes.com/wp-content/uploads/2022/07/openai.svg;" vertex="1" parent="4">
                    <mxGeometry x="1006" y="564" width="74" height="74" as="geometry"/>
                </mxCell>
                <mxCell id="34" value="" style="image;aspect=fixed;html=1;points=[];align=center;fontSize=12;image=img/lib/azure2/general/Website_Staging.svg;" vertex="1" parent="4">
                    <mxGeometry x="1051" y="541" width="64" height="70" as="geometry"/>
                </mxCell>
                <mxCell id="35" value="" style="sketch=0;points=[[0,0,0],[0.25,0,0],[0.5,0,0],[0.75,0,0],[1,0,0],[0,1,0],[0.25,1,0],[0.5,1,0],[0.75,1,0],[1,1,0],[0,0.25,0],[0,0.5,0],[0,0.75,0],[1,0.25,0],[1,0.5,0],[1,0.75,0]];outlineConnect=0;fontColor=#232F3E;fillColor=#DD344C;strokeColor=#ffffff;dashed=0;verticalLabelPosition=bottom;verticalAlign=top;align=center;html=1;fontSize=12;fontStyle=0;aspect=fixed;shape=mxgraph.aws4.resourceIcon;resIcon=mxgraph.aws4.cognito;" vertex="1" parent="4">
                    <mxGeometry x="120.5" y="240" width="78" height="78" as="geometry"/>
                </mxCell>
                <mxCell id="36" value="&lt;font style=&quot;font-size: 16px;&quot;&gt;Congnito&lt;/font&gt;" style="text;html=1;align=center;verticalAlign=middle;resizable=0;points=[];autosize=1;strokeColor=none;fillColor=none;" vertex="1" parent="4">
                    <mxGeometry x="114.5" y="318" width="90" height="30" as="geometry"/>
                </mxCell>
                <mxCell id="37" value="&lt;span style=&quot;font-size: 16px;&quot;&gt;Stream&lt;/span&gt;" style="text;html=1;align=center;verticalAlign=middle;resizable=0;points=[];autosize=1;strokeColor=none;fillColor=none;" vertex="1" parent="4">
                    <mxGeometry x="519" y="572" width="80" height="30" as="geometry"/>
                </mxCell>
                <mxCell id="38" style="edgeStyle=orthogonalEdgeStyle;rounded=0;orthogonalLoop=1;jettySize=auto;html=1;entryX=0;entryY=0.5;entryDx=0;entryDy=0;entryPerimeter=0;" edge="1" parent="4" source="14" target="8">
                    <mxGeometry relative="1" as="geometry"/>
                </mxCell>
                <mxCell id="39" value="" style="shape=image;verticalLabelPosition=bottom;labelBackgroundColor=default;verticalAlign=top;aspect=fixed;imageAspect=0;image=https://upload.wikimedia.org/wikipedia/commons/thumb/a/a7/React-icon.svg/512px-React-icon.svg.png;" vertex="1" parent="4">
                    <mxGeometry x="549.5" y="20" width="62" height="53.89" as="geometry"/>
                </mxCell>
                <mxCell id="40" value="&lt;font style=&quot;font-size: 16px;&quot;&gt;React&lt;/font&gt;" style="text;html=1;align=center;verticalAlign=middle;resizable=0;points=[];autosize=1;strokeColor=none;fillColor=none;" vertex="1" parent="4">
                    <mxGeometry x="547.5" y="80" width="70" height="30" as="geometry"/>
                </mxCell>
                <mxCell id="41" style="edgeStyle=orthogonalEdgeStyle;rounded=0;orthogonalLoop=1;jettySize=auto;html=1;" edge="1" parent="4" source="42" target="14">
                    <mxGeometry relative="1" as="geometry"/>
                </mxCell>
                <mxCell id="42" value="" style="sketch=0;points=[[0,0,0],[0.25,0,0],[0.5,0,0],[0.75,0,0],[1,0,0],[0,1,0],[0.25,1,0],[0.5,1,0],[0.75,1,0],[1,1,0],[0,0.25,0],[0,0.5,0],[0,0.75,0],[1,0.25,0],[1,0.5,0],[1,0.75,0]];outlineConnect=0;fontColor=#232F3E;fillColor=#ED7100;strokeColor=#ffffff;dashed=0;verticalLabelPosition=bottom;verticalAlign=top;align=center;html=1;fontSize=12;fontStyle=0;aspect=fixed;shape=mxgraph.aws4.resourceIcon;resIcon=mxgraph.aws4.lambda;" vertex="1" parent="4">
                    <mxGeometry x="279" y="399" width="78" height="78" as="geometry"/>
                </mxCell>
                <mxCell id="43" value="&lt;font style=&quot;font-size: 16px;&quot;&gt;Lambda&lt;/font&gt;" style="text;html=1;align=center;verticalAlign=middle;resizable=0;points=[];autosize=1;strokeColor=none;fillColor=none;" vertex="1" parent="4">
                    <mxGeometry x="278" y="477" width="80" height="30" as="geometry"/>
                </mxCell>
                <mxCell id="44" style="edgeStyle=orthogonalEdgeStyle;rounded=0;orthogonalLoop=1;jettySize=auto;html=1;entryX=0;entryY=0.5;entryDx=0;entryDy=0;entryPerimeter=0;" edge="1" parent="4" source="19" target="42">
                    <mxGeometry relative="1" as="geometry"/>
                </mxCell>
                <mxCell id="45" style="edgeStyle=orthogonalEdgeStyle;rounded=0;orthogonalLoop=1;jettySize=auto;html=1;entryX=0.605;entryY=1.038;entryDx=0;entryDy=0;entryPerimeter=0;" edge="1" parent="4" source="24" target="11">
                    <mxGeometry relative="1" as="geometry"/>
                </mxCell>
                <mxCell id="46" style="edgeStyle=orthogonalEdgeStyle;rounded=0;orthogonalLoop=1;jettySize=auto;html=1;entryX=0.56;entryY=0.99;entryDx=0;entryDy=0;entryPerimeter=0;" edge="1" parent="4" source="24" target="16">
                    <mxGeometry relative="1" as="geometry">
                        <Array as="points">
                            <mxPoint x="640" y="530"/>
                            <mxPoint x="481" y="530"/>
                        </Array>
                    </mxGeometry>
                </mxCell>
                <mxCell id="47" value="&lt;font style=&quot;font-size: 16px;&quot;&gt;生成を毎朝９時とかにする場合は&lt;br&gt;EventBridgeをトリガーにする&lt;/font&gt;" style="text;html=1;align=center;verticalAlign=middle;resizable=0;points=[];autosize=1;strokeColor=none;fillColor=none;" vertex="1" parent="4">
                    <mxGeometry x="650" y="700" width="260" height="50" as="geometry"/>
                </mxCell>
                <mxCell id="48" value="" style="sketch=0;points=[[0,0,0],[0.25,0,0],[0.5,0,0],[0.75,0,0],[1,0,0],[0,1,0],[0.25,1,0],[0.5,1,0],[0.75,1,0],[1,1,0],[0,0.25,0],[0,0.5,0],[0,0.75,0],[1,0.25,0],[1,0.5,0],[1,0.75,0]];outlineConnect=0;fontColor=#232F3E;fillColor=#ED7100;strokeColor=#ffffff;dashed=0;verticalLabelPosition=bottom;verticalAlign=top;align=center;html=1;fontSize=12;fontStyle=0;aspect=fixed;shape=mxgraph.aws4.resourceIcon;resIcon=mxgraph.aws4.lambda;" vertex="1" parent="4">
                    <mxGeometry x="617.5" y="549" width="78" height="78" as="geometry"/>
                </mxCell>
                <mxCell id="49" value="" style="sketch=0;points=[[0,0,0],[0.25,0,0],[0.5,0,0],[0.75,0,0],[1,0,0],[0,1,0],[0.25,1,0],[0.5,1,0],[0.75,1,0],[1,1,0],[0,0.25,0],[0,0.5,0],[0,0.75,0],[1,0.25,0],[1,0.5,0],[1,0.75,0]];outlineConnect=0;fontColor=#232F3E;fillColor=#ED7100;strokeColor=#ffffff;dashed=0;verticalLabelPosition=bottom;verticalAlign=top;align=center;html=1;fontSize=12;fontStyle=0;aspect=fixed;shape=mxgraph.aws4.resourceIcon;resIcon=mxgraph.aws4.lambda;" vertex="1" parent="4">
                    <mxGeometry x="637.5" y="534" width="78" height="78" as="geometry"/>
                </mxCell>
                <mxCell id="50" value="" style="sketch=0;points=[[0,0,0],[0.25,0,0],[0.5,0,0],[0.75,0,0],[1,0,0],[0,1,0],[0.25,1,0],[0.5,1,0],[0.75,1,0],[1,1,0],[0,0.25,0],[0,0.5,0],[0,0.75,0],[1,0.25,0],[1,0.5,0],[1,0.75,0]];outlineConnect=0;fontColor=#232F3E;fillColor=#8C4FFF;strokeColor=#ffffff;dashed=0;verticalLabelPosition=bottom;verticalAlign=top;align=center;html=1;fontSize=12;fontStyle=0;aspect=fixed;shape=mxgraph.aws4.resourceIcon;resIcon=mxgraph.aws4.route_53;" vertex="1" parent="4">
                    <mxGeometry x="121" y="80" width="78" height="78" as="geometry"/>
                </mxCell>
                <mxCell id="51" style="edgeStyle=orthogonalEdgeStyle;rounded=0;orthogonalLoop=1;jettySize=auto;html=1;entryX=0;entryY=0.5;entryDx=0;entryDy=0;entryPerimeter=0;" edge="1" parent="4" source="50" target="7">
                    <mxGeometry relative="1" as="geometry"/>
                </mxCell>
                <mxCell id="52" value="&lt;font style=&quot;font-size: 16px;&quot;&gt;Route53&lt;/font&gt;" style="text;html=1;align=center;verticalAlign=middle;resizable=0;points=[];autosize=1;strokeColor=none;fillColor=none;" vertex="1" parent="4">
                    <mxGeometry x="120" y="158" width="80" height="30" as="geometry"/>
                </mxCell>
                <mxCell id="53" value="" style="sketch=0;points=[[0,0,0],[0.25,0,0],[0.5,0,0],[0.75,0,0],[1,0,0],[0,1,0],[0.25,1,0],[0.5,1,0],[0.75,1,0],[1,1,0],[0,0.25,0],[0,0.5,0],[0,0.75,0],[1,0.25,0],[1,0.5,0],[1,0.75,0]];outlineConnect=0;fontColor=#232F3E;fillColor=#C925D1;strokeColor=#ffffff;dashed=0;verticalLabelPosition=bottom;verticalAlign=top;align=center;html=1;fontSize=12;fontStyle=0;aspect=fixed;shape=mxgraph.aws4.resourceIcon;resIcon=mxgraph.aws4.cloud_development_kit;" vertex="1" parent="4">
                    <mxGeometry x="800" y="80" width="78" height="78" as="geometry"/>
                </mxCell>
                <mxCell id="54" value="&lt;span style=&quot;font-size: 16px;&quot;&gt;テキスト&lt;br&gt;画像&lt;br&gt;音声&lt;br&gt;&lt;/span&gt;" style="text;html=1;align=center;verticalAlign=middle;resizable=0;points=[];autosize=1;strokeColor=none;fillColor=none;" vertex="1" parent="4">
                    <mxGeometry x="715.5" y="520" width="90" height="70" as="geometry"/>
                </mxCell>
                <mxCell id="55" value="&lt;font style=&quot;font-size: 16px;&quot;&gt;CDK&lt;/font&gt;" style="text;html=1;align=center;verticalAlign=middle;resizable=0;points=[];autosize=1;strokeColor=none;fillColor=none;" vertex="1" parent="4">
                    <mxGeometry x="809" y="158" width="60" height="30" as="geometry"/>
                </mxCell>
                <mxCell id="56" value="&lt;span style=&quot;font-size: 16px;&quot;&gt;すべてのAWSリソースを&lt;br&gt;CDKで管理&lt;br&gt;&lt;/span&gt;" style="text;html=1;align=center;verticalAlign=middle;resizable=0;points=[];autosize=1;strokeColor=none;fillColor=none;" vertex="1" parent="4">
                    <mxGeometry x="739" y="32" width="200" height="50" as="geometry"/>
                </mxCell>
                <mxCell id="57" style="edgeStyle=orthogonalEdgeStyle;rounded=0;orthogonalLoop=1;jettySize=auto;html=1;" edge="1" parent="1" source="58" target="60">
                    <mxGeometry relative="1" as="geometry"/>
                </mxCell>
                <mxCell id="58" value="" style="fontColor=#0066CC;verticalAlign=top;verticalLabelPosition=bottom;labelPosition=center;align=center;html=1;outlineConnect=0;fillColor=#CCCCCC;strokeColor=#6881B3;gradientColor=none;gradientDirection=north;strokeWidth=2;shape=mxgraph.networks.pc;" vertex="1" parent="1">
                    <mxGeometry x="990" y="85" width="100" height="70" as="geometry"/>
                </mxCell>
                <mxCell id="59" style="edgeStyle=orthogonalEdgeStyle;rounded=0;orthogonalLoop=1;jettySize=auto;html=1;entryX=1;entryY=0.5;entryDx=0;entryDy=0;" edge="1" parent="1" source="60" target="62">
                    <mxGeometry relative="1" as="geometry"/>
                </mxCell>
                <mxCell id="60" value="" style="dashed=0;outlineConnect=0;html=1;align=center;labelPosition=center;verticalLabelPosition=bottom;verticalAlign=top;shape=mxgraph.weblogos.github" vertex="1" parent="1">
                    <mxGeometry x="830" y="80" width="80" height="80" as="geometry"/>
                </mxCell>
                <mxCell id="61" style="edgeStyle=orthogonalEdgeStyle;rounded=0;orthogonalLoop=1;jettySize=auto;html=1;" edge="1" parent="1" source="62" target="12">
                    <mxGeometry relative="1" as="geometry">
                        <mxPoint x="479" y="250" as="targetPoint"/>
                        <Array as="points">
                            <mxPoint x="640" y="120"/>
                        </Array>
                    </mxGeometry>
                </mxCell>
                <mxCell id="62" value="" style="shape=image;verticalLabelPosition=bottom;labelBackgroundColor=default;verticalAlign=top;aspect=fixed;imageAspect=0;image=data:image/png,iVBORw0KGgoAAAANSUhEUgAAAgAAAAIACAYAAAD0eNT6AAAMQGlDQ1BJQ0MgUHJvZmlsZQAASImVVwdYU8kWnluSkEBoAQSkhN4EkRpASggt9I5gIyQBQokxEFTsyKKCa0FFBGzoqoiCFRA7YmdR7H2xoKKsiwW78iYFdN1XvjffN3f++8+Z/5w5d+beOwCoHeeIRDmoOgC5wnxxbLA/fVxyCp30FBAAGRCBOjDncPNEzOjocADLUPv38u46QKTtFXup1j/7/2vR4PHzuAAg0RCn8fK4uRDvBwCv4YrE+QAQpbzZtHyRFMMKtMQwQIgXSXGGHNdIcZoc75bZxMeyIG4HQEmFwxFnAKB6CfL0Am4G1FDth9hRyBMIAVCjQ+yTmzuFB3EqxNbQRgSxVJ+R9oNOxt8004Y1OZyMYSyfi6woBQjyRDmcGf9nOv53yc2RDPmwhFUlUxwSK50zzNvN7ClhUqwCcZ8wLTIKYk2IPwh4MnuIUUqmJCRBbo8acPNYMGdAB2JHHicgDGIDiIOEOZHhCj4tXRDEhhiuEHS6IJ8dD7EuxIv4eYFxCpuN4imxCl9oU7qYxVTwZzlimV+pr/uS7ASmQv91Jp+t0MdUCzPjkyCmQGxeIEiMhFgVYoe87Lgwhc3YwkxW5JCNWBIrjd8c4li+MNhfro8VpIuDYhX2pbl5Q/PFNmYK2JEKvDc/Mz5Enh+sncuRxQ/ngl3iC5kJQzr8vHHhQ3Ph8QMC5XPHnvGFCXEKnQ+ifP9Y+VicIsqJVtjjpvycYClvCrFLXkGcYiyemA8XpFwfTxflR8fL48QLszih0fJ48OUgHLBAAKADCaxpYArIAoLOvuY+eCfvCQIcIAYZgA/sFczQiCRZjxBe40Ah+BMiPsgbHucv6+WDAsh/HWblV3uQLustkI3IBk8gzgVhIAfeS2SjhMPeEsFjyAj+4Z0DKxfGmwOrtP/f80Psd4YJmXAFIxnySFcbsiQGEgOIIcQgog2uj/vgXng4vPrB6oQzcI+heXy3JzwhdBEeEq4Rugm3JguKxD9FGQG6oX6QIhdpP+YCt4Sarrg/7g3VoTKug+sDe9wF+mHivtCzK2RZirilWaH/pP23GfzwNBR2ZEcySh5B9iNb/zxS1VbVdVhFmusf8yOPNW0436zhnp/9s37IPg+2YT9bYouwfdgZ7AR2DjuMNQM6dgxrwTqwI1I8vLoey1bXkLdYWTzZUEfwD39DT1aayTzHesdexy/yvnz+dOk7GrCmiGaIBRmZ+XQm/CLw6Wwh12EU3cnRyRkA6fdF/vp6EyP7biA6Hd+5BX8A4H1scHDw0Hcu9BgAe9zh9j/4nbNmwE+HMgBnD3Il4gI5h0svBPiWUIM7TQ8YATNgDefjBNyAF/ADgSAURIF4kAwmwegz4ToXg2lgFpgPSkAZWA5WgyqwAWwG28EusBc0g8PgBDgNLoBL4Bq4A1dPD3gB+sE78BlBEBJCRWiIHmKMWCB2iBPCQHyQQCQciUWSkVQkAxEiEmQWsgApQ8qRKmQTUofsQQ4iJ5BzSBdyC3mA9CKvkU8ohqqgWqghaomORhkoEw1D49GJaAY6FS1Ei9GlaCVai+5Em9AT6AX0GtqNvkAHMIApYzqYCWaPMTAWFoWlYOmYGJuDlWIVWC3WgLXC53wF68b6sI84EafhdNweruAQPAHn4lPxOfgSvArfjjfh7fgV/AHej38jUAkGBDuCJ4FNGEfIIEwjlBAqCFsJBwin4F7qIbwjEok6RCuiO9yLycQs4kziEuI6YiPxOLGL+Ig4QCKR9Eh2JG9SFIlDyieVkNaSdpKOkS6TekgflJSVjJWclIKUUpSESkVKFUo7lI4qXVZ6qvSZrE62IHuSo8g88gzyMvIWciv5IrmH/JmiQbGieFPiKVmU+ZRKSgPlFOUu5Y2ysrKpsodyjLJAeZ5ypfJu5bPKD5Q/qmiq2KqwVCaoSFSWqmxTOa5yS+UNlUq1pPpRU6j51KXUOupJ6n3qB1WaqoMqW5WnOle1WrVJ9bLqSzWymoUaU22SWqFahdo+tYtqfepkdUt1ljpHfY56tfpB9RvqAxo0jTEaURq5Gks0dmic03imSdK01AzU5GkWa27WPKn5iIbRzGgsGpe2gLaFdorWo0XUstJia2VplWnt0urU6tfW1HbRTtSerl2tfUS7WwfTsdRh6+ToLNPZq3Nd59MIwxHMEfwRi0c0jLg84r3uSF0/Xb5uqW6j7jXdT3p0vUC9bL0Ves169/RxfVv9GP1p+uv1T+n3jdQa6TWSO7J05N6Rtw1QA1uDWIOZBpsNOgwGDI0Mgw1FhmsNTxr2GekY+RllGa0yOmrUa0wz9jEWGK8yPmb8nK5NZ9Jz6JX0dnq/iYFJiInEZJNJp8lnUyvTBNMi00bTe2YUM4ZZutkqszazfnNj8wjzWeb15rctyBYMi0yLNRZnLN5bWlkmWS60bLZ8ZqVrxbYqtKq3umtNtfa1nmpda33VhmjDsMm2WWdzyRa1dbXNtK22vWiH2rnZCezW2XWNIozyGCUcVTvqhr2KPdO+wL7e/oGDjkO4Q5FDs8PL0eajU0avGH1m9DdHV8ccxy2Od8ZojgkdUzSmdcxrJ1snrlO101VnqnOQ81znFudXLnYufJf1Ljddaa4Rrgtd21y/urm7id0a3Hrdzd1T3WvcbzC0GNGMJYyzHgQPf4+5Hoc9Pnq6eeZ77vX8y8veK9trh9ezsVZj+WO3jH3kberN8d7k3e1D90n12ejT7Wviy/Gt9X3oZ+bH89vq95Rpw8xi7mS+9Hf0F/sf8H/P8mTNZh0PwAKCA0oDOgM1AxMCqwLvB5kGZQTVB/UHuwbPDD4eQggJC1kRcoNtyOay69j9oe6hs0Pbw1TC4sKqwh6G24aLw1sj0IjQiJURdyMtIoWRzVEgih21MupetFX01OhDMcSY6JjqmCexY2JnxZ6Jo8VNjtsR9y7eP35Z/J0E6wRJQluiWuKExLrE90kBSeVJ3eNGj5s97kKyfrIguSWFlJKYsjVlYHzg+NXjeya4TiiZcH2i1cTpE89N0p+UM+nIZLXJnMn7UgmpSak7Ur9woji1nIE0dlpNWj+XxV3DfcHz463i9fK9+eX8p+ne6eXpzzK8M1Zm9Gb6ZlZk9glYgirBq6yQrA1Z77OjsrdlD+Yk5TTmKuWm5h4Uagqzhe1TjKZMn9IlshOViLqnek5dPbVfHCbemofkTcxrydeCP/IdEmvJL5IHBT4F1QUfpiVO2zddY7pwescM2xmLZzwtDCr8bSY+kzuzbZbJrPmzHsxmzt40B5mTNqdtrtnc4rk984LnbZ9PmZ89//cix6LyorcLkha0FhsWzyt+9EvwL/UlqiXikhsLvRZuWIQvEizqXOy8eO3ib6W80vNljmUVZV+WcJec/3XMr5W/Di5NX9q5zG3Z+uXE5cLl11f4rtherlFeWP5oZcTKplX0VaWr3q6evPpchUvFhjWUNZI13ZXhlS1rzdcuX/ulKrPqWrV/dWONQc3imvfreOsur/db37DBcEPZhk8bBRtvbgre1FRrWVuxmbi5YPOTLYlbzvzG+K1uq/7Wsq1ftwm3dW+P3d5e515Xt8Ngx7J6tF5S37tzws5LuwJ2tTTYN2xq1Gks2w12S3Y/35O65/resL1t+xj7GvZb7K85QDtQ2oQ0zWjqb85s7m5Jbuk6GHqwrdWr9cAhh0PbDpscrj6ifWTZUcrR4qODxwqPDRwXHe87kXHiUdvktjsnx5282h7T3nkq7NTZ00GnT55hnjl21vvs4XOe5w6eZ5xvvuB2oanDtePA766/H+h062y66H6x5ZLHpdausV1HL/tePnEl4Mrpq+yrF65FXuu6nnD95o0JN7pv8m4+u5Vz69Xtgtuf78y7S7hbek/9XsV9g/u1f9j80djt1n3kQcCDjodxD+884j568Tjv8Zee4ifUJxVPjZ/WPXN6drg3qPfS8/HPe16IXnzuK/lT48+al9Yv9//l91dH/7j+nlfiV4Ovl7zRe7PtrcvbtoHogfvvct99fl/6Qe/D9o+Mj2c+JX16+nnaF9KXyq82X1u/hX27O5g7OCjiiDmyXwEMVjQ9HYDX2wCgJgNAg+czynj5+U9WEPmZVYbAf8LyM6KsuAHQAP/fY/rg380NAHZvgccvqK82AYBoKgDxHgB1dh6uQ2c12blSWojwHLAx8Gtabhr4N0V+5vwh7p9bIFV1AT+3/wLVLXxHCmAJwwAAADhlWElmTU0AKgAAAAgAAYdpAAQAAAABAAAAGgAAAAAAAqACAAQAAAABAAACAKADAAQAAAABAAACAAAAAAAoMJe/AABAAElEQVR4AeydCZxcRbX/T93uWRJiXgwR+YdkZowhICAgIrJJQJBVFhFk31UEnmCAZGYSlUFeMjMJsqkgILLILouAKOsDIgIiIPIwhhDizCRElhhiDMks3bf+v+rMhJlM90x331t36f71hzDdt+89depbp2+dW3XqlBK+AiVQ16SrZaRsrbVMUmmZLI5sql35mHJkk7TIqAT+QaFq0TJG45gS2cR1ZZTj4Lgrna4jaxyRD10tH0LGahz/UClZg3P+4yhZi2NrcN2/IaNNubK4MyGL352u3gu0kiyMBEiABEgg8gTQv/Bli0DtXL2TpGVHrWRHdNo7oFPfGh3+ZrbKyyUXzsEalLvQ0bJAlPwFjsSrq7vklZVNanWua3icBEiABEigtAnQAfChfcc36ZHJatkJHetOeArfCZ3tDhC7ow+irYqAY7AEzsmrKOTlhJZX1iXlFY4WWEVO4SRAAiQQGQJ0AIpoCjOMn66WAxxXDkAHOhXD8NsUISaSl7giyzGN8AJGCx7uqZAHl1+oVkRSUSpFAiRAAiTgiQAdgDzxTWzV43HqEZhXPwQd/sF5Xhb70zBK8BxiDH6POIX7OmaqBbGvECtAAiRAAiSQIUAHYAhDmHyVHt3zoRyFp/zjMX+/Dzp+TOWX8cuV18DhtnRCbl1ar5aXMQlWnQRIgARiT4AOQJYmrGvVRyBY7lR0dodn+ZqHDAEt87ES4TanS25pa1KdhEICJEACJBAvAnQAettr/KV6XGVKvomO7Sw859fEqxnD09ZNy0osYbwJcQM/62hUS8LThCWTAAmQAAkUQqDsHYDaFr27FjkL0fsnFgKO5w4mgBGBJxEvcHV7vbpv8Lc8QgIkQAIkECUCZekAmCh+XSXHY27/nMyyvSi1SGno0o78B1fLCLmubZpaVRpVYi1IgARIoLQIlJUDgI5/DDr+CzFcfZaTkLGl1ZSRrc11yI/Q3Nao2iKrIRUjARIggTIkUBYOgHnil0o5VxLSiDYeU4btHG6VXenGaMtPESp4CQIGOSIQbmuwdBIgARLIEChtB6BJO3VVcjLy51+C9XsT2OYhE8DeBYgTmIOVA1dy5UDIbcHiSYAEyp5AyToAE1v0XkrLNaWUpa9krNWVDlfJrI5OuV2akFqJLxIgARIggcAJlJwDsMUcPSWZkCtRsQMDp8kCCyXwakrkzGX16sVCL+T5JEACJEAC3giUjAOQydq3RlpUAuv4+YoVAQwB3IOtkKe9Xa+WxUpxKksCJEACMSZQEg5AXYs+Fgl8rkQCn8C32o1x20dKdbNlMaZrZrWtk59yWiBSTUNlSIAESpRArB0As0EPtrG9EWl79y/R9im7amE04CWdktOWzlKvl13lWWESIAESCJBAbDe3qWvW30H42Jvs/AO0lgCKgkHunEjK/9XM1T8MoDgWQQIkQAJlSyB2IwBmrj/1ofwKw/2HlW2rlUnFkbDp2ZSS4xgbUCYNzmqSAAkESiBWDkBNi94TqXt/DUKbB0qJhYVHALkDECB48tIG9UB4SrBkEiABEig9ArFxAOrm6IuRya8kh4WxGdFbMK02BDJ+gDnwf2MY/N/awV+TOEfJSvMX6XRXIZveJjjvv3BsDGIfRuP9xzEFMgZ598foBD6nZRw249kOoyPVpWeq2FegXp1ZgvVilUiABEggFAKRdwDGN+mRFSPkXiga63X92pUV6OgXYevcN/D+DUS8v4EOe2FbtyxG1DuWw/v32qJVT0g4sjXKmZJwZSs4E1MQL7ENnIsJKDe2cR8g9EJ3Qg5dfqFa4R8tSiIBEiCB8iQQaQegpllPwpD/7/GUOyVuzYNlbUvQ2T+Dp/annbTMj8JmOJ9o0qNGVspe0GsqeO6NtLw7wSFIxoktuL6DXA+HtM9Qr8RJb+pKAiRAAlEjEFkHYGKz3j8hmO93MkPdUeM2SB8zjA+YT6JT/QM61SfaZqh3Bp0UsQNmdKWySvaCzlPhqOyNUYNdI6ZiTnWg80kdDerWnCfwCxIgARIggSEJRNIBqGvV38OT3ryoP51CxwWIS7jLTcvtyxrV4iFJx+DLTDbFD+UoOAPHIx5hatT5Y2SopW2tzGLioBgYF1UkARKIHIFoOQDYva92hPwCSp0WOVIfKdSODv8OJyl34Sn/1Y8Ol9a7T87Tm1Wn5BsY2TgONdsVzkAkYwfghP0Ouwt+va0Jmw3zRQIkQAIkkDeByDgAmfX9a+UhPNXtlbf2AZ2IDn8lur/bAOvO9gb1XEDFRqaY8S26JqnhCCg5GTEZ20RGsY8UeRW6HRSHaZePVOY7EiABEgiXQCQcgAmX6bHJLnkKnez24eIYWDqi6N/GkrvL0p3y8+VNau3Ab8vzU+0cfTDaqRHLDfeMFAFsMdzjyB5MGhSpVqEyJEACESYQugNQN1dvjjXuz+AJLjqR/loWIQtd67ix8quXz1Q9EW6/0FRDnMaucJBmYYrg4KhMD2CZ43JMCUwthXiM0BqWBZMACZQNgVAdAOTzrwPpZ/BEWRMF4uhAXoIerR3r5D4GluXXIjVz9DZmRABBg8dGIWgQTsmKtCv7LpulXsuvBjyLBEiABMqTQGgOwBZz9JQKJX9A5xH+Fr6uvIcRiPPaGtSd5WkG3muNTI1boy2vBce9vEvzKMGV1ciMuA9zBXjkyMtJgARKmkAoDkAmU50rf8YTY6g5/TFcnMJc9lVrO+Wi95vUmpJu6YAqV9uijwfTH6O4UNvWjAQgXfIeS2aqRQFVncWQAAmQQKwIBO4AjL9Uj0v2yJ/Q+U8KkxQ6/+eQY/+MtplqYZh6lGLZY5v06NFVcgmmVM4Oc1oA5S/HRkJfZGBgKVoZ60QCJOCVQKAOgOkYRlXJ8+gUwltKhuF+RPZfwCxyXk1n+OsnzNbbJxNyPaYFdhn+bDtnwNFb4iRkDy4RtMOXUkmABOJLIDAHoK5JV7sjkCZXZOewcOm0XFMxShoWn6tWh6VDOZZb26xPx6qKeeiIx4ZRfzgBCyo3kd3Y7mHQZ5kkQAJRJRCMA7A+w9/DKCyUHf0wFLwCAWrHdUxXT0S1IUpdr8xyTy33o567hlFXOCDPjvu4fJnLOsOgzzJJgASiSCCQ9K411XJzWJ2/ufF3ObItO/9wzc8Mwbetkz0QnDcbT+TwyYJ9mcRF/1op9wRbKksjARIggegSsD4CUDNX/xDBdheHgQBz/Rd1zFA/CqNslpmbQM08vZ+TktvCWAIKh/AypHO+ILd2/IYESIAEyoOAVQcgs6WvI48GjhKBftjR7mvlmLc/cNZFFpjZbCgt95on8yJFeLnsa2316jdeBPBaEiABEog7AWsOwMRWPT4h8jcAGhMoJC2PpSrluGXnq5WBlsvCCidgYkOqZSaeyi8KdLkgEgV1K/ns8gbVUbjSvIIESIAESoOAHQfA3Ngr5U8qEWzEv4nyb5+pzi6NpimfWiAltAkOvR9TAtUB1vrVTcfILgwKDJA4iyIBEogUAStBgHUjZXaQnX8mqCwt9ez8I2VbeSvT1qgeQerePTLbLud9lecTd0RQ4KWepVAACZAACcSUgO8jAHia2xsh3k9iSNeKczGIsyvdriMndNQrRngPghOvAzXNehKMxmwLXROY5q4cZByQwMpjQSRAAiQQEQK+OgCZwK6U/E05Mi6I+uHJfy2C/Q5a2qDmB1Eey7BPIJMqOiXPOCqwbJGrkC5426X1arn92rEEEiABEogOAf+e0jHvX22iugPq/LGS/D04ALux84+OMfmhyfIL1Yp1nfJFbC8clFM3BpsG3S+wXz/0pwwSIAESiAsB3256dZVyUVBLusxcsVstu3HP97iYWWF6mp0ZsTXzVCQN+m1hVxZ5NvYqqKmU2UVezctIgARIIJYEfHEAaufqnZB05/uBEMASLlfLPh3T1JJAymMhoRFQXXI0RgJeDEIB7FPQYOw4iLJYBgmQAAlEgYAvDgCW3/0qkKA/BPwhQOwAPvlHwXTs69DWpDqTI+UrcAIW2S9NRKXlRk4FBEGaZZAACUSBgGcHoGaOPhedv/Xtfc1SPwT8HYkMbi9EARx1CIZAZgc/R6ZiZYn9ID1Htp9YLd8LpmYshQRIgATCJeBpFYCJ+q9KyVtwAEbZrgamGE5BXv9bbJdD+dEksMUcPaUiIX+CdlYzS5qVJV1J+dS709V70SRBrUiABEjAHwJJL2JG9MhPJGG/85e0/KhjZrQ7/wmtehfA3B26fjzDNCEfIMXtmwhk+wd0X+CFM68VeXumWlTXqg8Ci+dt8oAzO7LKlZ+hjKNtlkPZJEACJBA2gaJHADI7urnyuO0KpLXch6V+X7ddTqHyMx1+WvZGTMK+CErcfbhREDOEjV0RX0c5NyLC/c5Cy+P56wnUtujjsdrkNts8kFzqK9xC2jZlyicBEgiTQHEOQJNO1lTJG+j0JllWvv3DdbKdWRZmuZz8xGOteF2VnIyTL/aUrc6VDgS2/Sw5Sn6emePOr3Se1UugtlX/EoZ7mk0gmApY0tElW0mTStksh7JJgARIICwCRQUBYge3hgA6f8Gd9xtR6fzx5HkIOv+/oeO/0VPnb1rapLpNSGv3h/LPmhZ9VV2TtjqvHZZx2SpXrZOzkQhqoS35Rq6xbwQEzrBZBmWTAAmQQJgECh4B2KJVT6hw5U10YrZ3bpuGiP8rwoRjyh7bpEePrpTr0WF/w5YuiBNYIUrOa29Qt9sqo9TkYvXJNmD2Z3TUI63VzZXOHke2fLteLbNWBgWTAAmQQEgECh4BwDx2k+3O32SAi0LnP2G23n5UlfzFZudv2t2kTzbz2nUt+tHxLbomJFuIVbEmsBLe63etKg0nN2PvVguhcBIgARIIh0BBIwDY6a8Onf8/bKqKYLllTqV8tm2aWmWznOFkY575SOUi2Mz+SMdAVfDUiSfbixEo2DLwC37KRgDtdDuM+Lhs3/l1rFtL7fIG1eGXPMohARIggSgQKHQEoMmm0plkPyJfC7vz/1SrPgyjEHcF3vkbuMbhUNIMZ+uvTE07vLUhHuB0nNU+/JnFn1GpZFbxV/NKEiABEogmgbxHAIJ4+tcis9vrVTB7CuRoj7rZekdJYtg/Ki9XruruksblTWptVFSKmh5BtBlHAaLW6tSHBEjAK4G8RwDStjf7wdK4sDv/yVfp0Vj/fa9XqL5e78i5FVWyqHaOPthXuSUkrG2WehX7UVxjs0oIfG2wKZ+ySYAESCBoAnk5ACblr9JyilXlHDnPqvw8hPd8KLcFsbwxD1UGnIIgwS1UQh6uadW/Nm0x4Et+yBCoGJXpoK3FjSBI8zQu16SxkQAJlBKBvByA6pSYDX88pQ0eChqG/h9B1P9vhjrH9nc1c/XJ6Gi/arscL/LRWEeNSMubE1v12V7klOK1JqES4jYusFY3xGboavlva/IpmARIgAQCJjBsDACeeqrdSnkb+6WPtaKb2eJXZKu2RtVmRX4+Qtdn+PsHAvDitATvBew7cFrbTGU1IU4++KJ0DqZK/ozRkp2t6OTKe5uOlQkvn6l6rMinUBIgARIIkMCwIwDpEXK6tc7fVFRLS6idP1SoqZQjY9b5G3K7Ij/B3+vm6IvNB756CSTlTGssHNlsxUo5yZp8CiYBEiCBAAkM6wDghPOt6WNy4ndLszX5+Qp25Dv5nhq58xLyQyQQemNii94rcrqFoFD7DPUKir3OVtFaWZxmsKU05ZIACZBAFgJDTgHY3vHPVXJKx4xwt/nNpDYWWZqFTewOYefEG6pGyvnlvsGQCZQc4cq7FhtwN8SsvGBRPkWTAAmQgHUCQ44AqLTF4VQ8/XeslVut13CYArC8K9KBf8OoP+DrhJIzUh/KmxgROHbAF2X24d3p6j1s0fwTa9V2YzxiZA0KBZMACcSNQE4HILP0T8lRFivUjK1Wkfk35JeWfULWwN/iMU+NTIJ3IEXu783ohr/C4yMNeSvmWtT2mLrLuYOjRb4UTQIkEACBnA5AZVq+aat89PorEE19gy35hcjFNMR2hZwfl3Mxt3NgwkWQYKv+nmCVQ1z09ktPs4Mflpfe6Je8AXJMuuZuOXnAMX4gARIggZgRyNkxIPHPGbbqorU0R2UpFfIbbGOrnmHLRd1GQYfLayvlT3VzkeK4zF6JtFjbUAlOLFcDlJk9sbokUGoEsjoAprOwmBFvVaJTri41kFGuj1kX76blz1gpMM/kdYiyrn7qtmSmWoRcCXf7KbNPFn44O5fzFEsfB/4lARKIL4GsDgDyqlub+0ek+ry2JtUZX2R5aO7K6jzOCvQUk8kRQYIXSpW8YVZ3BFp4iIXB3i6xVXxFWo63JZtySYAESMA2gawOAOaPrQxvYrvfNVim9lPblQpbPtaKn4WOZ5a4Ej1HB9kOHVceR5Dg7eMv1ePCZmW7/KWz1OtohwdtlIMYg6NtyKVMEiABEgiCwCAHILMHvb2UuHeWwxp15KTvXtqg5qABPwNn4OkgGrLQMuDkHZfsljdqm/XphV4bt/PTIj+zobOZWuE0gA2ylEkCJBAEgUEOAOZMj7RVMDrDX9mSHSm5DhIL42VSHCMz3T5Yk36SWfkQKR2hjEnxjA2QbkDegGfqmnVd1PTzS5+lXfIERgHe80tefzkV2KCp/2e+JwESIIG4EBjkAKCTPsiG8ugAl+GpeL4N2VGX2dGgbnXWyZbohG6OpK5K9oJef69t0d///LUafVqJvZBvAss9b7dRKzh3JZNIygYfyiQBEogugQEOwITL9FhHyU421IXc0LP+2ahXvjIR+LgKIwKnosP4EjZAWpTvdYGdh7Xt2PP+kvdXyqsTWvUugZUbUEFwbG+zUpSWqeOb9EgrsimUBEiABCwSGOAAJLrkCGtlpSL69GutwtkFYzTg2U0/juRDafkRRgTMVsiRepm8CAgSfB7b6l49+So9OlLKeVBmab16CUGoiz2IyHppZnVFtXwl65c8SAIkQAIRJjDAAcAw6SFWdHXlNe5b/xFZkwQJPC5KiWyL0YDITYugU3MQ4HZW9zpMC7RqazEhHxEJ6F3CTgwKllceHFANWAwJkAAJ+EZggAOQ0GJlfTgy/5VH8F+BzbKsUS1ua1BTsWrgDCTqWVng5dZPh3GMx2qBe7FS4CEkh9rceoG2C6iwNA2lZW/bqlM+CZAACfhNYIMDUDNHb4PYdd+HfDHs6nZWyC1+K15K8tob1S9TlbIV1pXfEcV6YaXAVzFlYZYM/nec9xXomKaWgK//2/gqmWLiZ6LYdtSJBEiABHIR2OAAYAe5PXOd5Om4I6+Y7Vk9ySiDi5dfqFa016vjERewD/51RK7KcA7hCPykZoT8aeJsHdsNlJCg6SEbbCt6LP1+bChLmSRAAiQAAhscALzZ3QYRDP8/bUNuqcrESoGnpUu2gkPWgtEThAlE6wU72TnhyMsYMWqO474C0P9pG0SxymA3G3IpkwRIgARsEdjgAKDDsXIDs3XDtQUkCnLNXgltM1QjYgM+h/wJL0VBpwE6OFKJJEINbpX8DQmE9h7wXcQ/tHdiCsBGimbXjgMdcZxUjwRIIMYEMg5AZv4S85g26vGfTvmDDbmRlom4Bz/0M3nsO+rVF5DK9hyzj4IfMv2UgdUCkzCG9BScgJswGjDGT9nWZCEpEJzd+X7LR36Hnf2WSXkkQAIkYJNAxgFI9MgONgrBTfGVlU1qtQ3ZkZbZmwrYLx2xhv1qPHFvCa/iHr9k+irHkVPcEfJmTYs+0Ve5loQh2NJ3pxTO0MhJc7QVJ9oSBoolARIocwIZBwBLvaw4AJD7dJnz9a36mBJ4B6MBR2Or5kPgCCzzTbBPgmBI45Dt8VfYTOqp8S26xiexVsTAAXjahuB0Agme+CIBEiCBmBDIOAC4IW5vQ190VPNtyC1nme0z1e9S67BkUMtlUQwSVFgTn9Ty97o5ekZUlwx2dMpzNuIAVNqOI13O9s66kwAJ2COQcQCwxvuzfhdh1v+nO+Vxv+VSnsjyJrW2vUFdAMafB49Xo8bEDIdLQlrrquX5ia16fNT0k/WbA/3Rd72SdAB8Z0qBJEAC1ghkHABsAmNj6LLNdFTWNI+yYJ+CAIer4rJZ6rW2evU5nDcNzkD0WCvZBU/F/4d0wvsMV5egv4fhv+x7ma58xneZFEgCJEAClgg4W7TqCYjkrvZbPuaDF/stMzbyfA4CHK7ecAKu0I5siWWDvx3u3KC/R/DiWOj1GLYaPj7osocqDwGqbw31fTHfQeakYq7jNSRAAiQQBgEH+f/rbBSM+f83bMilzOwEsFJgOVIKH4pO6Bic8U72s8I5iimBJEaZbsukEg5HhUGlInHPwkEHPR4w9Yx6AKTHKvJyEiCBEiJgnlXtPLVY2Hq1hLhbqwq2G747OUK2giPwExOHYa2gIgQj2PTKCa16lyIu9f8SSyNUCbHjUPsPgBJJgATKnYDjpOTTNiDYeMKyoacVmSF3vIvPVavhCJzrOrIbnIAFVupYhFA8IeM/uXfyVdr3TacKVceMmICN78mVsF9CXaG68HwSIAESCIOAGQGos1GwkjKOAbABtAiZy+rVix2Nalt0dA02lr0VoRLMTSZ0r5X/KeZav6+BN2IjTqXObz0pjwRIgARsEMD9WHzf5x0dTgodzxIbCsdCZsBBgMMxQVu0ditsMKTlseHODeR7LedMmK2t5J4oRH/Mj/juAKiU/7+nQurEc0mABEggXwIOboLj8j053/PgVfh+Y823bJ6XncDyBtXR1qAOgBNwHEYDQt2e2UwFYEfB2dk1DfBo2n87xcjXpgHWgEWRAAmQQNEEHEf77wDoRLSi0IumU4IXwgm4M7mJbImqXYeRmtCCBBEQeHBmCWqIjLFE8Z9+Fw/bpwPgN1TKIwESsELAjACM9Vsykr+U3wZAfkO0KM8ECSJ3wJnYFW8qXADfl8Plo7oZBUi68p18zrV1jqtkld+yOQLgN1HKIwESsEXAwY14lN/CcWOlA+A3VAvysFLg2U3HyvbYV+AHcAQ6LRQxpEiMAnxtyBMsf4l9C3xfBQCOvjvUljFQPAmQQJkSMEGAvr+w4/p/fBcaJ4EhDq0XiunlM1UP9hX4H0wF7YClm08Xer2X8+F8blPTrCd5keHlWmRP9N1RtTGi5qWOvJYESIAEchGw4gBg/fmHuQosi+MRWwWQD/MlM9Wi9hlqH4zenILUvSvyucaPc2CAe/khpxgZmP/yfQTAjKjVNWnfU2sXUz9eQwIkQAJDEbDiAEDov4cqlN9Fl0DHDHVLTwU2tdFySxBaYtTB950o89U7lbK0gdJIGZOvDjyPBEiABMIiYMUBQN5335+swgJUjuUuv1CtwGqBUzBH/2WsFFhikwHiD7a2KX8o2W7C/yBAU56bYhzAUNz5HQmQQDQIWHEAMITs+9xqNHCVlxbt9eopp0u2hSMwG8Ft3TZqD9mhBc05lXYcVcQW+J5bwwZ7yiQBEihvAlYcAIwARG9v+iDbOUZBgMNhaWtSnXAEvo8pgR0wGvDccOcX+j2WzYW2L8Cy89XKQvXN8/yP53keTyMBEiCB0Ag4Jm2v36UjCLDSb5mxkhfDIMDh+PZgZHu4c+L2va1gPUcJNgXkiwRIgASiTSCJIQDjACT9VBPzur7nFvBTP8rKn0CmkxwpF0lazsdOPjYcO9+T8eRbu3WbyOgRNtyadPA5FfKtM88jARIggT4CpuM3c7u+LltKpMvcASiRKYC6Zn0gbONaDP/XmG38bLwgNrAlhxvrPyIlI23US1fYiZfYWH9+JgESIAEvBJKulpSFe/smXpSK/bUxnwKom6s3RyDnT5Aq+CjbbYFlgKFtHJVyZbQZAvP9xREA35FSIAmQgP8EHMxW+p4CFlHQnALwv60CkVjXqr/npuVNBHJa7/xNhbAK4C+BVCxLIYmEHTtFMiUrKyayVIGHSIAESKBoAkmEdq3CMOj4oiVkuRCdR3k7ADGcApjQqnfB5jzXozm3Rza7wF5IQfxsYIVtVBBGv0YlsAzB75eTtrO80G89KY8ESKC8CZgYAN+DsPBU97GyxhqjKYCxTXr0qGr5HziC58ARDLDrx7ICVxZ0NKq2sGxFOXaWIDpJsbW8MCxULJcESKAECSTxAOT7zQqbAZV3DEBMRgBq5uijnATm+kU2x3x/4C90wPcHXmj/AhWCAOGt+v1qm6He8Vsm5ZEACZCA3wSSCMJa5fe9H3kAfJ1S8LvS1uUF/CRdaH3Gt+gaDP38EuvV9y30Wr/Ox9O/i1iRq/2SV4wcbAY03oLj4/uIWjF14zUkQAIkMBwBM+Tr/zIsN7z87sNVOJDvIzwCUDNX/7BSSXuYnb9pA4w8PLS0Xi0PpD1yFALnd0qOr4o/rOW94i/mlSRAAiQQHIEkhuvf9jtvmdkS9ZPz9GbvTle8GQbXlkOWNLFF74X0dNdjyNv/Tm/IkrN/iZH3H2X/JsCjWrb0ewQA9aLNB9iELIoESKB4AknMwy4r/vLcV1alMx1Ned4MIzQFMOEyPTbZLZejozs5d2sF/s117TPUK4GXulGBGAHY2u/pLzgAbRsVw48kQAIkEEkCmAa14wCoiDxpRpJ6QErVNOtvo/P/R5Q6fyQYehsJhesDQpCzmLrL9RjMf/m+ax9+UEtyFsovSIAESCBCBJJYh73M72FQUz/sB7BlhOpZVqrUzdFbY0HfzWjXXaJUcRP4hxwR32ibpkIPlEt1yxSzBtb3l4LDxRcJkAAJxICA02ZpHTYivCMx1xxKG4QUBGg27sHSvmbEdPw9ap2/aQc4m43tDeq5UNpko0ITWiZvdMiXj2nFEQBfQFIICZCAdQKZxC8mIYvfJWEKYGu/ZVJebgK1c/TBUiVvILq+IfdZoX4zrW2mmhuqBv0KR/DrVv0++vYWaYA5BeAbTQoiARKwSSDjAGBY1ncHACsBtrG137pNIHGTPbFVj0eE/70qIQ9j2L8mcvq70pnWckRbvboiSrqlHdnOd31cWf12vbISVOu7rhRIAiRQ9gTWT4NqecNKHMAI2Q2Enyo7ykGsAmjSTt0IORejN5eYZZeRZOxKB/LtH7S0UfnuYHqtL0YA9vZ7+SsCal/3qhevJwESIIGgCPSNAFi5cak0brLl+LIcA2A27qmryuyid3lUO3889d8g1bJDx8zodf4TZ+vtMFUy1m/TxLTXX/2WSXkkQAIkYItAZgQAT5Gv4Ybo/8spUwfA0giA2bjnY5XSgqV0Zwa9cU++xoF18G9hbf2JSxvUC/leE/R5cJr2tlGmm+AIgA2ulEkCJGCHQGYEoKNbFsIJWOt3ERj+3V0wVO233HKUV9eijx09Qt7AXP9Z6MCixxRz/Vj6+YNxY+QzmO+PbOefsR0lU23YEEYAXrMhlzJJgARIwAaB9TEATcp1WrW5ee3qZyHoqJITq2XPpSLz/ZRbTrLMxj2VIr9CjMZeUa03HL0nU0pOX96gOtqjqmQ/vTCC8mU4Ur6+4EC7Tpe85KtQCiMBEiABiwTWOwAoQKflL7gp+uoAGL2Ranhv/KEDYGAU8Pr8tbri/X9Lo5OWRjzvVxdwaWCnotN7B5sKTetoUHcGVqjHgmzN/8PZfa2tSXV6VI+XkwAJkEBgBDYMJeuk2Bm2daP75GqNsscgwNpWvc+/PpDXkTjn4qh2/nAYr1nTJVu1xajzN+2NjnpvG+2OUZA/2JBLmSRAAiRgi8CGEQA8ac63MbOMTuxLJu96FNK/2oI4SG6Rc/Rm4x6nW640QXQ2lmUO0rOYAwgYFVdOaZ+lXi3m8rCvQc6LQ23ogDaz40DbUJYySYAESAAENowAmJTAWMe83HcqjlS6nfIN3+WWkkAESpqNe5xOeRND6idGsmpIcgO9prV1yefaYtr5my2q8aT+ZRt8EQAYiRTHNupGmSRAAqVJYMMIgKkentafwJPnyX5XFbEFx0HmdX7Ljay8AqYAkLt/GzC/HkPTu0e2PiJ3ImnOtLYZ6p0I6zisaiNcORYu7wCbH/aiPE6A47ysw9KeGnkUz1NIgARIoCgCA2+GGln7bDgAWvY2KWuX1iv/RxiKqnb4F41v0iMT1XIxnvgvDF+bHBogkx++OROjQ4/kOCNuh40j6vsLw2i/810oBZIACZCAZQIbpgAy5STE3o1e4+mrXF7DxABMbNb7J0fIm4modv6udMMRbBET5Fcinb9xQGF+u1oywd9bkkuxJEACJGCNwIARADPEW9OqX4JXsLPfJSJI6gTIvMxvuXGSZzohdPpXi5bDo6o3lvY9hzS+p709Qy2Kqo7F6IXprdPh1Pj+Aq8U1v/bc5x915gCSYAESGA9gYEjADiGYKYHbMDBUPdONZfrSTZkR14mgvywY9/52IDmjah2/kiOswL/zsBc9h5vzyytzt/YB7IUnmbFTpQ8w/X/VshSKAmQgGUCgxyAdFoetFWms05OsSU7UnL7BQHWtepda6rk//Dk/2ME+kVy1z6zcU+6SrZqb1S/jBRHn5SZMFtvD/Z2nE/X3u/Fp+pTDAmQAAlkJTDIAVg2S72GYc0lWc/2elDJqV5FxOV6s3FP7Rx9NfR9Hp3PNpHUW8sidP5TsXHPN5edr1ZGUkcflMJGV9/0QUxWEToh92T9ggdJgARIIOIEBjkAGX213G1Fb0dqauZq35cZWtHVg1B0+IeOrpI3sfzxLA9i7F6qpRFZ/LZC5z/fbkHhSh9/qR6HaZczbGiBaYVnubLFBlnKJAESCIJAVgcA25reb6twx5VZtmQXIxejHb7vgphZSunIZsXoY/sas3FPt5ZadP4ttsuKgvyKtHwPDtlIG7ogq+C9NuRSJgmQAAkEQSCrA7CsXr2IdK8dVhRQMgXz4kdYkV2EUABYU8RlsbsEyWqWu2k5Ghv37Gd27YtdBYpQ2ORaQGDjeUVcOuwlcBzddY7cPuyJPIEESIAEIkogqwNgdMWTorWbGzqjyIwCuEqWRbRtfFMLbXnFmnXymY6Zqqzmqysq5Ww8/VsJvMT0zvx3p6v3fGskCiIBEiCBgAnkdACQIOBGW7qg0J3rmvXetuQXIhfDuG8Ucn6szsXGPamU7ICn/mkrm5TJ5V82L7OdMgL06m1VGEs6r7Ulm3JJgARIIAgCOR2AJVgLboKcbCmhHXs350J0xtPxS4WcH4dzMTxtpjXOQxa/Hcyqjjjo7LeO76+U02Dc4/yWa+SZnAlx2wbZBgfKJAESiDeBnA6AqRaSAt1gq3pIynZgZiMcWwXkKRdPcqWVxS0td2PZ25Zt9eqqPBGU3mlIvATDtjbNhGmjm0oPGmtEAiRQbgSGdACQC/7O3qdJK1wwjxp6J4V58QVYJhb7tLdopyWuI19pm6mOifuufV6NbeII+Q52/avxKifX9RgZ4/B/Ljg8TgIkEBsCQzoAJsWpVvJzW7XBKMC+GAU4ypb8fOViGuCX+Z4bufOwcQ+GpGcjH/22HdPVE5HTL2CFJlymxyZEZtsqVos8sqxRLbYln3JJgARIICgCQzoAGSWUXG5TGQThXWGWa9ksYzjZqQq5AU/Q/ucDGK5gr99rmY/Rix2Qwvf7zEe/HmayK7Ph1BivaHNdj9iVH+f6jsdJgARIIE4EhnUATKYzPCHfaqtSypEtEtVysS35+chdfqFagZEOa0+N+ehQyDlYRrkCeRpOQyDaVAz5Lyzk2lI+1+y7gKF/e/tNYKqIoyylbEGsGwmUF4FhHQCDAwlk5tnEgo1yLqybo7e2WcZwspESd04cYgGMM+ZWyFaI8L9puDqV3fe2l+ZpaS47pqwwCZBAyRLIywHILCVTdrYJ3kDWCT+wCvO7p23QJ2JvMEWxAMFne2BN/0mlvHFPsdjx9P89PP1vX+z1w17nynt0uoalxBNIgARiRCAvB6C3Pk1W66Vkr5oWfaLVMoYR3t6gnpO0/GiY0wL9OhObgI17Orow12/042sQgU/O05thSsTqNBJGXmIzRTQIEA+QAAmQQBYCKsuxnIfq5urfYJj88JwneP1Cy+oeJdu+Xa+WeRXl5fq6Fv0oNvTZ34sMP641EecpkW+FzcOPutiUUdOsH8bC/4NtlYGYi2Ud9WqiLfmUSwIkQAJhEChkBMDo12RVSSWjK7TcZrWMfIR3wskxEfYhvfDU/47ZuKe9Xh3Ezn/oRpjYos+32fmb0pEs6qKhteC3JEACJBA/AgU5AEgw8yqqeKfVamIqoLZZ/4/VMoYRbpbUbfpx2Q/TAXcPc6qvX6PjT2Go+Yp1XbJluW3cUwzIia16Z2SrbC3m2nyvQZssae+Sm/I9n+eRAAmQQFwIFDQFYCqFTXzqEGz1D9sVNFntorDkCvU1WeWusV5fkZccJd/qdbJsFxd7+XWX6zHSKX9F29TYrAymYb6OkZj7bJZB2SRAAiQQBoGCRgCMgoiEbkPAlfUUvioldyDmYPMwoPQvE/X9udlRT6ftbBqEJ8w1aZFzMMf8BXb+/ckP874HT+WWO3+0zXPs/IdpB35NAiQQWwIFOwCmpt0VcgmcgNU2a40EQeOw7O1Wm2XkK9ssg2yfqb6A4fmT0q68kO91Q51nOn7M87e4VVKLZEtXD3UuvxtIAEv+zrUajNpbHLL+nTewZH4iARIggdIhUPAUQF/VTfAVEvhYT4ua1jIrk6Snr+AI/J0wW2+PHffMdrOnY7XA6AJVMnEUNyZHyE2Lz1VWnagC9YrF6XWz9Y6SlL/YVtYkXDI5F2yXQ/kkQAIkEBaBoh0AozCWy72BDnCKbeXhBBwBJ+AB2+UUI9+kn8XT/FRcOxlz+GY+ug6dxwQ4BymweQdPkctVWl7DUrK/4an12czug8UUxGsEQX/jE648H8DQ/1q025YmDTaxkwAJkECpEvDkANTM0/s5rjxuHY7Z8U7JPkyEY510ZAuYfJUenVorfw7C4QSEaW316orIwqBiJEACJOADAU8OgCkfS/Yewnz9V33QZWgRSBKEuIMvcvOboTGV4rd1TboasRJPYr3/7tbrp+VFbLL0RevlsAASIAESCJlAUUGA/XXGcr0zTUBb/2NW3mOu3U3Ik1FYGWClfhSanUATBuOr5K4gOn/YcQpO5inZFeFREiABEigtAp4dgN550guCwAJlx+MG/YwZDg6iPJYRPoGJ1XId5vwPC0ITR8scjjAFQZplkAAJRIGAZwfAVKKjUV2HJXvPBlIhBB1iLvhxMywcSHksJDQC2CL6Yqw0OSMQBVx5ra3b7oZCgdSDhZAACZBAngR8cQBMWT0iJwQyFWAKU7ILuv/HM9ngzGe+So5AJh10Qn4YWMW0HCNNyPrPFwmQAAmUCQHPQYD9OSE3wOF4YvtN/2NW37uyUBKyDzLovWO1HAoPjgDm/M2wf2BP/utrxqj/4FqYJZEACUSEgK8OgKkTcudfiTnbcwOrnysdbrXs0zFNLQmsTBZkhcDnr9UVK1bJgzDKA60UkE0odn1E1L/J48AXCZAACZQVAd+mAPqoIXf+ebby5veVMeCvyQe/Tv48oVXvMuA4P8SKgAns/NcH8kSQnT9SMa/sUXJCrEBRWRIgARLwiYDvDoDRK5WQr5mbq086DisGaXnHIiHRUyYx0bAn84TIEfjkPL1Z91pk+MNW0EEph3gVFyNVh79dr5YFVSbLIQESIIEoEbDiAGRuqri5Zm6yAdUW68RHYhX375Ge+NiAimQxPhCoadaTqlx5GWmUt/FBXN4isOSvEbn+g1m5krdWPJEESIAEgiPgewxAf9WD2jCof5nG6UDa4MuWdkojorpT/b/j+2gRqJ2jD0YWyTvw5B9oXgftym/bG9Wh0aJBbUiABEggWAJWRgD6qoANfC7D+zv7PgfxFyMBDiLIL6ypkmfM5jFBlMkyCidQ06IvVwl5OOjOHwP/r/V0YckfXyRAAiRQ5gSsjgAYtpnI7n/Jc7jZ7xw0axOHgKHlExCY+EjQZbO87AS2aNUTkmm5PxR7EFne5cjn3p2u3suuHY+SAAmQQPkQsO4AGJTjL9Xjkj3yf3g63zxotJk4BC1zO7plFhO9BE1/YHmZ3SPTcm/gT/3r1VjVk5Yvvj1TLRqoFT+RAAmQQHkSCMQBMGgnzNbbwwF4PhOsFwJrOALPpZQct7xBdYRQfNkXiXiQeWZqJhQQrnQi4n8fbPH7Qijls1ASIAESiCCBwBwAU/fMMj1E6sMJSIbBAk7AWgQIzt7s4zLv5TMVshfzZZsAUvp+WYtcjzafZLusbPLR5iml5Ij2BvVwtu95jARIgATKlUCgDoCBXNuqj0QU9q/RIVgNQByqQdEhvYWO4eyljeqxoc7jd8UTMHP9Fa78DK18WPFSvF2JNnYzMSANKtBAVG9a82oSIAESCIZA4A6AqVbNXH0y1mHfHEwVhyhFyQM9Wv6byWCGYFTgV2aXRnekzJC01Ic13dOnMhyAM81OlX2f+ZcESIAESOAjAqE4AKZ4LNE7OyF4QozAy1VyUccM9aMIqBJrFbAPxIHYTu9nYQ3394eX1jILy1Dn9D/G9yRAAiRAAh8RCM0BMCpEygnAEjEnLVeu7pafr2xSqz9CxHdDEsDufbUj5AhM61yAjn/3Ic8N7kvu7hcca5ZEAiQQUwKhOgCGWRjZAodsK1dWp5Vch6Vqly+tV8uHPLeMv8wM9VfJyZhjvwCspkQBRWbOX+Qc5H34eRT0oQ4kQAIkEGUCoTsABk7dHD1DEtIaOVBabkGn0toxUy2InG4hKYSOfwzm+M/FvgvnmU2YQlIja7GYyjkFUzm3ZP2SB0mABEiABAYQiIQDYDTC/PGpiBi/cYB2EfmAVQMmk+D17fXqvoioFLgamK7ZWWk88Wv5FtqpOnAFhikQbfT1cm6fYfDwaxIgARIYRCAyDoDRzASR4c/9UexgjH6Z1MIJuQcBZrdhs6FnSz2z4PgWXVMhcjI6/hPQJlsbBlF7YYTG5HY4CAF/86OmG/UhARIggSgTiJQDYEDVtepdEUn+EJIEjIsyOHQ874iWm6DnzW0z1cIo61qIbhMu02MTXXI8duk7AdftWsi1QZ+bcci07Ns2S70adNksjwRIgATiTiByDoABanbxg2IPoHMNfAOhohpUyyJEwT+JOfFHutbJE8ub1Nqi5IR0kXG6sG7/IO3Il5E1b8+Q1CioWDhgSzAR8ZWOaWpJQRfyZBIgARIggQyBSDoARjOzi+D7H8gvEWV+YqzaypVuncDuh648imHzR9rWymtRmyqom6s312k5GEP7B2C0Zb+oBfMN195wtn77ny45gcs1hyPF70mABEggN4HIOgB9KiMu4DvoSK/p+xy3v2aYGvr/Do7Mn9OuLMQSw4VBbkg0tkmP/li1bIfOfgrK3jahZX/os33cOPbpC57nYVXGVX2f+ZcESIAESKA4ApF3AEy1aufqnRT2kEfHVVNcNaN3lavlFceVxRgteFNrWYgo9g4Es3VieV1nJf52OvjrSLdU4Ni/pbOtSXWaWky+So/G02910pXKqrSMRCrjSmytVI0OvhqN+V+QtR3m77dCfMKW+Lc13kc6lqKAlmkHnyPbZ6hXCriGp5IACZAACeQgEAsHwOhu1p/rEXIHFDYrBfgqIwJwju74zzr5TjkP+We2007KFCzDnGwcOziOtXD2RuH9SPwzyzJHYpRppCgZbUzDrI7A8U7k11iLazLv04L3jqzC8QX49w9M/yxCOu5FSJzUZq7hiwSiSqBg+8fIq0rIB7h3fAD7Xyku7D6BfwrvtfwTv523ME37VikFcBfTdrFxAPoqh+1l/xtPtT/p+8y/pUsAndga/GjPKafkPmaEp+tD2RU3r10xQrQHblZbBzHyBdYLcKN8PZ2QZxIpeY4rK0r3dxXlmoVh/3CElyH4eTF+A2/hN7cQv4H5y+rVi1Hm5JdusXMATMUnNOvJUPxXCSfay9T8aqSylKPlRXR+x5T602lm2WU3RrVc2RM3oT2iEp9hnC+MKDwHvV5wK+QPHdPVE2Vph6y0VQJRtX/YfSdWRT2Nqdo/oK+Z39GgnrUKIiThsXQA+lhFNoVwn4L8WzgB/PDQCTa21asrCr84HleMb9Ijk9VyJDr8E/ADjMWUFlZerEAMxh1wCm5H27wQD9LUMooE4mj/GY5aHsNowa/gDNwaRa7F6BRrB8BUeIs5egpuSjdzNKCY5o/WNehgnu5x5ZQgV0kERqBJJ2ur5QDMQZ6AzvRQzMWPCqxsnwvCvOpbCMq9LaXkV8sa1WKfxVNcKRIoIfvH6MB7GBn4ZQqr0+J+r4q9A9D3W4ncroJ9ivHvsAQyGf2wqyCG+28a9uSYnbBFq56AFRvfwQ/N7KGwWczUH1ZdBFOZodFr2hvU7cOezBPKjkDJ27/Ik1iB9Yu2BnVnHBu3ZBwAA9/krq90ZR4Cx74Rx8YoN50xz+ziqf/GRJVc2DZNrSqZ+jdpp64K+RZEzsKQ4cF42k+WTN1yVaT3qQgBVD97u14ty3Uaj5cBgTK0f4zqvY2YpSvWdsvP329Sa+LSyiXlAPRBx2jAXkh485OoBFT16cW//QiY9Mkip+HJ8bl+R2P/FmmVvwfH5rvo9CfFvjLFVkDJAyktc8olkrpYTKV4XdnbvyurMT1wtZOUK9tmqHei3sYl6QD0Qe/dYrgJn2v7jvFv6ATegbc8u71R/TR0TXxUoGaOPgpL91rwg/q0j2JjLQoO3h0pkRkcEYh1M+alPO1/MCbsGnsDpshaohwnU9IOQKZJEHyC4dgTsaTj+7w5DzbSwI640oGymjcdKze8fKbqCaxcywWZBCXIS3Etg1BzgDbLqUR+3NMlc+K2SVaOGvFwPwK0/34wsrw105wYDfwF8rXWR3Gas/QdgH6NUjNXn4xd736ABpnc7zDfWiSAH8ASGFkznvh/YbGYwEWbDZUQDdyKqP6TAy88jgWaGAGRH3Q0quviqD51HkiA9j+Qx3CfYPsrkGRoetQCncvKAcg0kglQqZZvmJsRlg9uM1zD8fviCKDjX4DOsbmjU26P2m6IxdWo9yrYT02VfBO2Mw/1y6Td9SSv/C5+IeXKSVEeFi2/JimgxrT/AmANPhX3xeeQcfOMqKQgLj8HoF+b1LbqIzFHczZu5vv2O8y3Hghgm+GXMBc+G8lifuNBTCQvNTknko7cgAQ+e0ZSwRgphd/dDxAA+j8xUrnsVaX9+2cCiA+4NNEpP+jb5M0/yYVJKmsHoA/VJNzYXSXn4InuVD7V9VEp4K/J3idyF5ZfXoHI11cLuDIWp37+Wl2x4gOpx3rfWVhZUh0LpWOgpBklgrN4End4jHZj0f4ttQ9WQiHx2aFvz1SLLJUwrFg6AP0QZVJUImAQMQJn4fCO/b7i2ywEsNxlAUZPrkeAy01RDHDJonLBhzK5JbQ8xCWlBaPL/4K0/AhDohflfwHPDIoA7d8+aTjCZ4YVG0MHIEf7Yj3rrujgzsF8zWG4+XOut4+TlvnYVvYBVSW/6ZimlvQdLsW/xgawZPEhRPmPK8X6RapOyB3QvVaO50qB6LQK7T/AtkjL3au75VtBb3lOByCPNq5p0Xsi4vsQJ5HZuKW8RgaQ2AIZrh5xHXmocqQ8uPhctToPZLE/pTeHxI2xr0iMKgCH+xVkhjx0ab1aHiO1S1JV2n/wzYqRgCWYEjs6yCkxOgAFtvMn5+nNqrQc6KTkEKwk2A9OwdgCRUT+dDM3i1iIxzDn/RCW7/1v5BX2WcHaFv1jBPqd77NYisuHAJYLYpOVQ5lFMB9Yds6h/dvhmq9UBMh+FQGyD+d7vpfz6AB4oYdrJ7TqXdBR7plQ8gV0nLvEMgWsK6/hyesJdPp/TFfI08vOVys9Yonl5XVNulqPkPvxozgwlhUoIaXhXB/dUa/uKaEqRb4qtP8INZGW44LYYIgOgM9tjh/RGLda7ons0kJ09qjyX8xwK2IbXlnXKa/GafMKn5trg7ixTXr0qCr5PRy43Tcc5JtwCbhyWtQSp4QLxF7ptH97bIuVjPijb9lOoEYHoNjWGeK6ujnaLIkLZ0dCDKFCtXeQ+ng5hpLeROzCYjgji3q0LAlzuckQuEL/asJleqzTLY+D006hK0MFBhJw5Sw4AT8feJCf/CRA+/eTpu+ypiGnyhW+S+0VWPrblNoiF4bc9U/v5w0q2pVVUiHvxGH3qUG6h3zAxHQ4XfIUnvxjkxUSufXfArY3EZy5AEPl/8L00xo4emYXsjVwYsxWpJ1YuTAaDuBIHBuN6Z1R+DwKU1V1uGZL/J2C0Z/NQkafX/GOXAOHejSWCc7N7wKeVQgB2n8htEI593IkrBvXXq++b6N0jgBYoGprBAAxBmuwXvRjFlQuS5FmjXNSy5Po/CO7N0RvQOaTCEp8OpGW15f4lDTkE016VNUI2QY3gJ3xbx/kKd8ryk5B7w6SVm6CZWn8qDTtP0b2bylzJh0AC79+Ww6AUTUl8kVGSHtvNBOrgYC/l/ADiNb2vWbZpSN34sn+cWedPIFUoau81zY/CdjSdRudkL0xQnBkFGNY4Aw1wAFuza82PGsoArT/wXSibv8Y5fN9OowOwGA78HzEpgOAHNIXLG1Ql3lWsowFmNSm/1ol84Fg10hgMFvmKvktVmHcMW6MPBSF7ZIzu71pORZTCCdFJTYCDoCLqYyjMRx6XyTaLaZK0P6Hb7io2j8eDo7xc3UMHYDhbaHgM2w6AOgkHsBc/xEFK8ULNhCoadW/dkSO2nAgpDd4yl+G+fxmDMXfGuUES7DnrRHUOg2Yvh0Sqo+KNftOOLIPAqNe+Ogg3xVCgPZfCC2RSNk/VEdStq90TFdPFFaL7GfTAcjOxdNRmw4AnoLWImht07B3kfIEKMSL61p0K5yoGSGqIGZeHw7IvLYuuRVbJWNWJx6vTBKsHpmGEYGz0QmHlh7bTctKJAv63PIG1REPctHRkvZffFtExv4RC4YEdF/yY+M1OgDF20POK206AJlCA0oSkbOCMf2itll/E0PI14em/volmvVxX9veu2ysCY7Ad0NjiZ3UMBbwxSBjJEKrq08F0/79ARkF+zdOcDohO7xdr5Z5qRUeRPiKHQFHjo2dziErPLFV74zh9mtCUQPD1vjBtnR3yafi3vkbfiZTZEeDOtdJy1Zg+mQoTJVMQRAnMwXmCZ/2nyeoPE6Lgv2bFPQVWu6VJmR88fDiCIAHeLkutT4C4Er3h5gGYAa/XC0w8Pjkq/Tong+x97wjWwz8xv4nzPPfk0LgZikPV9fO0QeD7eWYWplin+hGJaSlnjkCNmKy0Ufa/0ZAfP4Ypv2bB4uOmaqx2Cp58h6KLZTXeSTgSGX1CDnZo5SyubxnndwVdOdvhuh0Wg5BxO7Rpdz5GyNqn6l+t+nHZTusGLCWsSyXsbpKZpv9OHJ9z+MitH+7VhCm/Zt4JkztfLnYGtIBKJZcyNeh4bhbXR5tgLW952KYK+jNfV5wkrKtuTHkoWJJnGKWLmJaYJqJUDbOT1CVQhKnJH4L95rERkGVGadyaP/BtFaI9u9gEuAuE6BYTE3pABRDLQLXoFP7dM08vV8EVImsChNm6+0RqDYvKAXNOnXMic9uWyd7lGtaZrM8yTg/SEP8bFDccRObUF0tNwdVXlzKof0H31Ih2f+46nRx8QB0AIK3Ed9KdFIhRmH7Vgt7gpIJ+TWWq1XaK2GgZDyNfj2Ts7tJYeq/fF/G+cF+5l/CvgO3BEUB+yEcWTNXc1qsH3Dafz8YAb4Nw/6RKnzPuhFybqHVpANQKLEone/IYZkkFVHSKSK6gMvFgQWlmSh/DH0jOc1vIlL9SKiB/cxPwZDITwJTJiWXj79UjwusvAgXRPsPv3GCtn+MQF6SyWBYQNXpABQAK5KnJqUlknqFqNQWc/QUBIfNDEQF5O5HUpqpfmXmCkTnAAsxywUlLT8KokizNKqyRy4Noqwol0H7j07rBGr/2PETTkBBU550AKJjK8VpouXw2rma+9j3o4fh4BtNcFi/Q1beYoe6sq1ppwAAQABJREFUFWlX9uDmTEPjxTK9i3CGSSVs/+XIKXWtOhp7PNivbdYSaP9ZsYR2MEj7R8zTibUtevd8K0sHIF9SUT7PlSujrF6QumFJzOno/PP+ARStG578Eeg2deks9XrRMsroQkyPmCWCwTgBGgGBTdq6AxjF5qP9R7FVRIK0f+zmeUO+CYLoAETTXgrSygSA1LbqIwu6qARPNik60SkXNARWFIb1G9IcgAQcC4q6vkwvMjdB7GZpf4geCYkmVoe730MYTUz7D4N6/mUGZv+ObF1TKf+dj2Z0APKhFINzsCzwZybjVwxUtaZiMiXTzTywtQJ6BWPr3qPwY+ZudEWAxlbW0xEYeGsRlxZ0CZ6CGs2e9wVdFPOTaf/Rb8Cg7B9TAZfk0x/QAYi+zeSr4ebda+Vn+Z5caucZY0cCmry8Xk91x0ZMWOL2sCcZZX5xR6ecgnwJj9jEgGmgUe7IwpdF2dTJpmzav026/soOwv7Nbp09a4e3fzoA/rZtqNIyASAe0kKGqrzHwlNr5AJz0/coZsjLTapbLO25c8iT+OXwBJAnQa2Tr+HE9uFPLv4MR8u08U16ZPES4nMl7T8+bYUtwAOxfwQpT8MoWPVQZOgADEUnht9hKuCOQteCxrCaA1Q2N3ks+7ObGtmV1+C5Tx9QMD8UTQDb+HamUnKYYGOrooUMf+GYyurhn4KGFxPtM2j/0W6fbNoFYf9mOjRdLWdnK7/vGB2APhKl8teRzbAW9OFyioKuqJbzbT79g+fabiWHwnNPlYqZRKEey2ap1zBUWW9TFziGFwz3FGSz/CBk0/6DoOx/GUHYf0JL/eev1RW5tKcDkItMjI9jKmAnpIUsi3gA8/RjhrpsNhd4nlHqO/rZ5DeUbBMZjfb77VDnePkON7hxMkK+40VGlK+l/Ue5dYbXzbb9w8He7L1V8q1cmtAByEUm/se/XdOsvx3/agxdg4oqOdZm5D+Wrd3Hef+h28Drt51JOQNTAau9ysl1PUZwzsn1XdyP0/7j3oIitu0/4eYeZaMDEH/7GaoG15R6fgDl5PZuhwKT13cmx7+S8/I6lycVTeDd6eo9BFj+oGgBw1yI6aHJE1v0XsOcFsuvaf+xbLYBStu2f4wC1HyqVR82oNDeD3QAslEpkWO48TkYXr2rVLcNnoSc/2gqa2lf01hL+3a9WlYi5hDpanR0y08xCvCaLSUxF3q6LdlhyaX9h0Xe/3Jt2z8c7JOyaU0HIBuVEjoGJyApKXmgkPzQcal+2pEzbemKdepvIWnHHFvyKXcjAlgahQRLZ2101LeP2J/56E80aavLRH1TNk9BtP88QcXhNMv2j2yxR9VdPjgxVlnmy46DPfipI5yAkZgHfRxOwDdKKomNlpOx5a+Vl3ZKN3AsX2ATmvVkPCF8GYy3gw3V6LQkRMtSNyGvq7Q87XcqZNjmc3XN+mYMWZ6Sr475nmd+AyOq5Hicf12+10T+PNq/1SYqJfvPgOqUY/H35/2hWbp99i+i/N5jL+67cKv8RtRqDifAhV6ndcxQt0RNt0L1qWnVR6Fz+nWh1+VzPp5En26fofbJ59xSPGfCbL19IiE/M3tMDFO/V7H3wjmm4x7mvLy/ntiqxytX2tFh+/5wgp0bX1jaqHbLW5kIn0j7t9c4pWr/GAV7qaNefaE/OU4B9KdR4u9xU3WQHe1mBETNLIGqHmOrDni6bbUlO+py4bxenEzKX/Po/E1VdsR5f6xp0Vf5Va+l9Wo5bkq3+SWvv5yEI7tu0aon9D8W4/e0fwuNV8r2j9/Vzqjf1v2x0QHoT6NM3mO/8NlmlMKsIY5rlR1X9reiOwLR2hqV1Tz1VvT2QSi2kn0II0Q/LFQU8iR8t65FP1PodTnP19KS8zuPX1S48lWPIiJxOe3f/2YoB/vH6OaJ/cnRAehPo5zeY4oCaVL/Yua54lbtzKoGbHZhQ2/8QMru6d9kCsNy0d9jSVnxnaOSvTB/f6UfbdI2Uy20lRwIsR2H+6FjmDJo//7SLyf7RwzPAf3p0QHoT6Pc3mPfdBjAX+D5fjNWVU/LIVb0deU9zGffbkV2hIWuWCn3IRjoQM8qOnKuX6tNdFJ8cSY2rpOpZ5xHvjL1of1v3KyePpeV/Sdk57FNH20bTwfAk+nE/2LEBYzCk9/1E5v189hEaMdY1EhjExkLLyT9KbvO3wx7enry36gdEBQ4b6NDRX3smK6ewCjA20VdPMxFyJ0f7wBP2v8wLZz/1+Vo/x+rli/1EaID0EeizP+aACkMD/2lrlVfO+EyPTaqOEwQC5yWSTb0Q0f4KxtyoyoTQ/YP+Nn5m3qibXavuVz70j5wyO6wwQ6Bi1YcSBu6biyT9r8xkeI/l6v9g9iX+6jRAegjwb99BL6d7JG3sFLg/L4DUfqbTnxkvL7qpWURlv694qvMCAszNz+st7fTEa7zEEvQjxnyDlhxyLAcdr9+xcTqLe3fn+YqZ/tHkrO9+yjSAegjwb/9CYzBSoEfYzOhNzEicET/L8J+nxDZwYYO+FFY6Wxs6OpFZl/Ak7XOH8phnn3AUqNi9TXbpaKzXlzs9bmuMyNI/edBc50XxeO0f2+tQvsHPy07YovsMYYkHQBv9lTSV+NGaVYI3A9v+a9mZ8Eo7KuODmE7G9DTaXnQhtyoyfzXSrnHl4C/ISrmOvLJIb4u7Cst9xR2QX5nj66S3fM7M1pn0f69tQftPzNN56SrZaohSQfAmz2Vx9WObA9n4FqpkndN0heTKSusisNgfXcAkCFrhXnaDKtOQZVrddizXyXgYKzt99Hb2wp50puA7FdjuefO2b+J9lHaf/HtQ/v/iB1ifzIjqcmPDvEdCQxDAGvvcQP6rpOU7yIV6TK8/x2Gzh9du04ee79JrRnmas9f4wdcB5d1tGdBGwlA5Pr8jQ6V1scm7dRVyf02h/37A4MD8F7/z17eOx/Ks26VpOCA+nqvUloGpET1omNQ19L+iyRN+x8EDhlhP2MO4h7OFwkUTgCGY1Kqfhs3+3uxycoHGBl42YwO4N+JfkWBb6wVtue1Mv+PH8NTG5dVMp8DvvkZbnAK/+QXv7Ym1QlZL/olr5+cXfu9j8Vb2n8RzUT7zwUtE6fjq1edqyQe904Ac3+/w/Kl0XnmaPdeYAESep/OdsIl5p9ItwieVlZjaP11DDW9gdz6C5GB7W+4gb3vpGUNIplXjxghqxefq1Znzs//f9vmf2r+Z2IE4H/zPzteZ9aNlPvQI9uJ9s+CAna61unyN54CTqZx0Pyds3dkM+S92LxthnonSzWieoj2X2DL0P6zA8PvdIr5hg5Adj6RO4qn1DWbjpUjVqySB3FD9J61zXYN108XmJv27sgvn9m1N2NseG+GnVLr4CS04lkx7JcrnX5vaxt2lTLl9z35BNj5Z8pVcl3vU7t/GBx5xT9h/SRp+WckbLCfSoG/pf37izwm9o+HtpHjW3QNpwD8bX6r0l4+U/W016uDXC23Wi2ovIQvKsXqZp58bK3zzwEs8/Tv+L+XAvIBLMxRJA97J0D7984wIyFu9p9MyBSOAPjU+EGK6WhQJ9XO0f9RCTkryHJLsixtp3NB+xyMaY+vYLRmZ0wxTIbHvbm40oFjb2JK5I+YBnkIW9++ZIMphrZ/g2H/wDe9wdPE120MqZsRmrJ/UrdhKEYm7d83snGzf5WSrekA+Nb8wQpqn6nOxg5uK9HBzAq25NIqTSfkTT9rhCDIPbE97k8gc0e0TeaFuI31L0dq8LYGUyL7Yibkh4iTeBBfnIfth9t6z/D8J6zOHx3JcTa3UcbT1RI4UZM8A6KAAQRo/wNwFP8hhvaPB8gtOAVQfJOHfiWmA75vbrxm6Cl0ZWKqANaD+zMEijn3mrn6h2iPZ4Aiv02V1g/R//VTrdp7kJ6Z8zfpfQN+8oftpRDJ8fW2BnWnTROAU+V7RkCb+sZFNu3fW0vF2v61jKUD4K39Q7/a3HgRIPh584QUujJxVEDJcj/UrqmU2WiHi/GUWthvCsGS6EAfQOf9naL16Av4C37OP4VVHsfAEb2vaN3zvRABe/meyvMKIED7LwDWwFNN5x9r+0/LmMJuVgPrz08RIdA2Uy1c0yWfwxyzGVLmqwAC+BEXuhRxkHRsnHS4k5CGQV8UcsCRaya26rMLuaTv3InV8uugkvz0lWn+4qn8pEA6//WF/rt/2XzvDwHaf/Ec427/mP4xid34KgUCK5vUaszBHo6I6enGMy2FOgVRB5OXwEs5ZnMRzPFf7UVG37WIC/gZRgJO7fs87N/eYX9s3HTksOf6eIKxryCG/furjPL+0/8z3/tDgPZfOMdSsX9kw+QUQOHNH+0rEBx4Keb19kUSnhXR1jQa2pmkRF40ee8DpEYWGe9FxoBrHbmxtlmfPuBYjg9hLPUzqgT85JOpPR2AHEbg8TDtv3CAJWT/nAIovPmjf8XSBjXfrZCt0lpugLcKX4CvXAQqKr2NAMCL/nou2cUeR2d3fW2LPj7n9SUe8Jet3lg+yRGAbGA8HqP95w8wjCf/Pu2s2L9mDEAf35L7u+x8tRKOwDcxPP0lGO6CkqugTxVqm6ZWFStqfJMeiaC/3Yu9Ptd1JpAQ7XZbLiegtlruKoM5/wF44Gh5GqkZIIwfNhCg/W9AMeybMJ78+5SyZP+MAegDXKp/2xvUcx1d8lnUbxrGAngT3aih65p09UaH8v5YXZnZECnv8ws9EQmEbkauh4/m93uf/OEcHFWoLC/nh/nk06c3VlgwZ0kfDB//0v6Hh1mq9o+hYZdBgMO3f/zPaFJuW726AglotkKj3xP/CvlXg9RoGVmsNDchY4u9Np/rMBKQROKge/ucgHJ88u/jlEbu8r73/OsfAdr/8CzDfPLv086G/eP+spoOQB/hMvhr0rR21KujEST4eVTXauKWuOB0u2VUsbqmUsEkYMo4AS36D0E/+Rsu2HfiGNtJfvLhn0gX3075yC/Xc2j/Q7d8Sds/ptXoAAzd/iX5bfsM9QpGBEwGwU+jgtdhasDsuV6Wr6RbfMeSrJD3goKGzn/PoMoy5fQNe2LfibuDLDdXWXBaR+f6jseLJ0D7z86uHOwfo8Fr6ABkb/+yONrRqJbAEThzXVJq3bS0lGOMAIbxix4B6N345p1SMxZz8wssw1me8OAAbJLnqTytAAK0/8GwysX+0fnTARjc/OV35N3p6j3suNYoXfJJM+SlXfltuVBAdO3/81JXLLUsua2ZozDnuXGbQKfNNz7Gz94J0P4HMywb+9eyiiMAg9u/bI+0NalOM+Tb3qgOlXXycTgCZ8AheBIecSnnEjDTIEW/0iI/MU8MRQuI0IWmHkFn+Mu3+rDDKfmey/MKIkD778VVbvaP3AIf0gEo6LdSPifDGVgFR+CXcAj2q9wEzoCWr+Jp91L8SJ4rJQqOK5O91Gd5g+rAU9T1XmRE5dooPvlsYEMHYAMKP9/Q/j+iWW72j3v6u1xb+1H7810OAovPVSZ/wMO9/8SsHdYjZDeVlr2RkGZXbEG7I/5uluPyaB9Oyme8Kqi65Xy3SnawkRTIq255X2/2M7e8pW/eumx04ifn6c3QURUdq7GROH7sT4D2v55GGdo/4mrepAPQ/8fA93kRMFMFOPGp3n+ZayZcpscmemQHLFnbAQc+A+9yG0Sub4f3YzInRPR/cGImeVXN8Jh8lT6oZ408qRKys1d5QV9v4j6iEu2fre5VaQz/w7D48p8A7X/9UtdytH8E+i6iA+D/b6osJZrUw6j4AKegD8TYJj26YhOpxlru6mpXqru1VCeTMhJTCpUJjbGDPF9pJSdi57sz8jw9v9McqTFPmCYQMr8Lsp9lRkngBOzbvU6eRIVi4wREvfM3tDE0a4UnnNQTMH2zPHuLRu8o7d//Niln+0+7spAOgP82RYkbETBbFeOQ+efphYx4JvOevw4ABFa5shf+3ONJOVzc5wTEYSTABDyZpX548rnPa72tX68w1YToRF9frnS3dyEZFrJk+irXojDav39waf/S+XajWpb305d/6CmJBIojoCvl1eKuHOYqnXEAhjkpv6+NE9DTLVN1Wl7K74rgz+q7+bXXx6DzBx43JV/ynZKCLcWo8zf1p/37YwW0f3B0ZKGhSQfAH5uilAAIdExTS/DjXet3UdhoZqqfMpc3qbVRdQLMzQ+/+uPi0vlPmK23d2zsuWAcgJi9aP/eG4z238swLYvMOzoA3m2KEgIkgPlg/5+sHdneBDH6WQ3jBKztln0wz/ysn3K9yjJLnbAfhOfpDq965Hu9StpJgYyO4OV8dYjSebR/b61B+1/Pz03K38w7OgDe7IlXB0wAE7Z/tVGkk5Kv+i33/Sa1BuslvoLOJvTcCebJB9PoX4/qUr9c7BEkeniu77wcxz6osRsBMPWl/RfX6rT/gdwwRfmCOUIHYCAXfoo4AURt27lxu3KyjaqbJYJOl+wbphNgbn4m4C8uw/597TD+Uj0OUdr79X326y94uMvWySt+yQtSDu2/cNq0/4HMDI/NxmZWbNEBGIiGn6JOAE+xT1vRUcs+ZjmgDdlhOgHmx45feWzm/PvzT6TkZCRX8v0hBTb0IgIAY5m+mfbf30KGf0/7H8wI+VleePlM1WO+8f3HNbg4HiEB/wiYHQyxJCwTwOKfVPwQ0NGM6JFT/ZTZX1afE4DsW0/3P27zfd+TT5zm/PvzwPD/Kf0/+/Ue88Amq2UsX7T//JuN9p+dFRa+/m/fN3QA+kjwb2wI4CnIym6FrrLT4fSBNU7AuP+S/YNwAuL85GN4TZqjp+DxZPs+dn7+xXSIFfvxU8ehZNH+h6Kz/jva/xCM1Prhf3MGHYAhOPGriBLQdp7gMAqwTV2z3ttmrc3Qm20nIO5PPoY/dln8no12AJt32mYoO3EkNhTOJpP2n43KhmO0/w0oBr9xpbOtS+b3fUEHoI8E/8aGADK4PY0f+RobCmOLzHobcvvL7HMCMJXxWP/jfrw3Nz+49bGc8++rv1mSiXlK3zM+Gvlw8h7sKyeuf2n/uVuO9p+bjfkG97c/Iv4Fi0nWv+gA9JHg3/gQMAbsyCM2FMaeMwfWzNHb2JDdX6ZxAto65RA/nYBSePIxjJLdcMIcqezPy6/3yMsQewcgcwOn/Q8yCdr/ICSDD7jym/4H6QD0p8H3sSGA7H332lIWP4qLbMkeIBeR6FiXf4B2fZqTVnJC3Jb6DeCBD3WX6zFY+nf2xsd9+axlNfIyPOmLrJCF0P6zNADtPwuUgYfSVXJ7/yN0APrT4Pv4EOjMeLKrbCiMYMCjxrfoGhuys8nEkO7XvIwEmCcfBIZ9Pcpbmmard7Zj6S45G8P0o7J95/UYHK3bTCCmVzmRuJ72v6EZaP8bUAz5BqNf9/Tu2rrhPDoAG1DwTZwImBs5slndYUNnsyQwqeTHNmRnlWlGAjrlIGyPfGnW74c66Mp7kpSD4v7kb6po5v6x9M9eDEZSfjEUyjh9R/vvbS3afyFme9PGJ9MB2JgIP8eGALKiXWdLWfwwjqpt1l+2JX+QXMQ1LG1Q07FH9wEYDcgvz4ErN0tCduiYrp4YJC+GBxI9cIAcGW1FdVdea5+hYpn9LxcP2j/tP5dtDDoOR6m9QQ3Kf0EHYBApHogLgbZZWM6FG7stfRGJfo0t2bnkLm1UjyEuYCs4AcdhLnzwfLUrqzHycU0qJTu0NapTsaTtnVyy4nS8rlXvigDM02zpjCmS623JDksu7Z/2n6/tpZXcku3cZLaDPEYCcSFgbuzoOH5iRV8lU2qadT2yr7VakT+E0N5Ne+40p9TN0VvjSX8Mcncue7tRLRvisjh/ZdXZUtVya5zh5NKd9p+LTOyO27V/V27MRgT3Tr78JoAb9l24YX/DV7lpubttpjrGV5klIKyuSY+RKvknho6rbVXHTcu2HTPVAlvyy11ubYv+PkZbLrHFASMptyJA8iRb8sOUS/sPk74/ZVu3f1d+h4eYQ7JpyymAbFR4LDYEEAy1Cql1r7apMIIC78eN1pqDYVP3qMvGzW93RCdfbEtPRIi7jiuzbckPWy7tP+wW8Fa+bfs32mHr65y/LzoA3tqPV0eAAHK7z0MsQLc1VTAVkK6Wn1qTX6aCJ1+lRyOQ7X6z6sIWAows3IeRs4W25EdBLu0/Cq1QuA5B2L/Zd2RZvXoxl3bWfni5CuRxEvCbgAmEw1PkDX7L7S8vgdS0CFQ7ov8xvvdGoGed3IWu38oWzH2aIWfkD/rel+pf2n88WzYI+0cw8Y+GokMHYCg6/C42BFRSfmQSgthUGPJ/NWG2trJDnU29oyi7Zq7+IQKQDrSqmysPlvrTfx8/2n8fiXj8DcT+RV5AfpCnhiJCB2AoOvwuNgR6l8PdZFNhk6EumZRHPzlPW31qtVmHKMiubdVHIpVtznlJ33RMBJTS2TeFixdE+y+eXdBXBmb/7vC/MToAQbc+y7NGIGUxkryf0puPcOXR8U16ZL9jfJsnARP0hCd/a/s4bFDDPP3HfdvfDZXJ7w3tPz9OYZ4VlP1jSvRZ5AkZdsM0OgBhWgPL9pXA8gbVgTz+F/kqNLuwHSur5X5pwuaafOVNwOyvgHz8D+V9QZEnYqpmbdqRs4q8PLaX0f6j3XQB2n8KS5fzsn/ewKJtM9SuQAIdM5SJBVhc4GWFn65k/7oRwWcKLFzRaFxhpk2wv+/jTkLG2tbITC8srVfLbZcTRfm0/yi2ikiQ9i/IYLp0lno9HxJ0APKhxHNiRQBG/a2AFP72xBZ9L0YCmFFzCODIpjhpREr+jBvTlCFO8+UrOH8L2rqL2FTJl9KjIYT2H4126NMiUPsXWbGuU2b2lT3cXzoAwxHi97EjgLmvp7H85ZYgFMfywCNrR8rjjAnITjuzakKj83fE+vbK6PxdlZCTBBsrZdemPI7S/qPTzkHaf6bWSi54v0mtyZcAHYB8SfG8WBFIVco0KLwqCKWRzGbvZLX8wWxnG0R5cSmjZp7eDysnng9i2N8wQTtcW2o7/hXb1rT/Ysn5d13Q9g+v9yVMARX04EMHwL/2pqQIEVh2vlqJjVLOCEolR8lOyS75i9nVLqgyo1xOXYtuQArex+EABLJaAm39Vk+3XBhlJkHqRvsPkvbgsoK2f6OBmyr8fkcHYHDb8UiJEEASjPvM1rmBVQfD3BiG/gPiAs4PrMyIFVR3uR6Dm9+jmO9vDkw1pIFOp+TI5U1qbWBlxqAg2n/wjRSK/aOaWF3z3WWzVMFbo9MBCN5GWGKABFS3nI/d4BYEVSSeeJOIC/gxkn38PrNTW1AFR6CcCa16F7dT/o7Of/8g1cHT/wXF3PyC1DGssmj/wZEPy/7xe3ugvVEVtVcJHYDg7IMlhUAAu6V1wgE4HE/mgT4dZtLcVskbSPl5cgjVDrRI89RTO0dfjSH/5+EAbR5k4ej8Hyn25heknmGVRfu3Tz5M+0ft2j9cKycWW0s6AMWS43WxIbCsUS2GoZ8TuMLY6AZr0m/GMqA/luQeAkiEVNusT5dOeQPR92eh8w/0foJhz7crRsgxgbdrzAqk/VtqsJDt3+yAmkrJYYVE/W9MItAf7MaF8zMJBEUAS6NuwijAL4Iqr3856Bh3xx4Cf61r1leObdKj+38X1/fGoampkj9gK9obbO/ol5WRC7cjIYctPletzvo9Dw4gQPsfgMPzh9DtHzXwY+oLI5V8+U2gbo6+Czenb/gqNy13Y2czPu14hNoboBboHHV/lZGicyX2qL8GT8w/7d3Apf/XkX9f06L3xI1nmsl/EKayuHEd/o969WCYOsSxbNq/t1aLiv3j6f9mOHWnequNCDOYeSXI62NFIDlSju7+MDNXvU0YiveuiZ8laZmOEYE7EJ8wt2OmCixIsag6Y6izZoQcieHCC3B9FJY5TmPnX1RLCu2/CG5Rs38tj7V1yelF1GTQJRwBGITE+wGOAHhnaFPCxFY9PiHyMsoINGAtV53SrryQcOSO7oTcvvxCtSLXeUEfr5utd0wn5ASMWByPzn980OXnKO+6tnp1Zo7veDgPArT/PCDhlCjaP6Yxn3O6ZF8T3JlfLYY+iw7A0HyK+pYOQFHYAr3IzOFhbt5ErQeSqCbfypmodmS0uxmZ3B4zyVzyvc6v8wyXBObWocMJmNvf2i+5vsgxW/w2qsN9kVXmQmj/2Q0g4vb/2uou+dLKJv/iXugAZLcDT0fpAHjCF9jFE5v1/njyfjSwAgstyJXXsL3xM5jvm99VIfPfna7eK1TEcOdPnK23w0TgXogo2hcZ9PcOKm3vcHoN+l7L/O5OOYjJfgaRKfoA7V8kLvaPB4O3OhFM7Pc9gA5A0T+f3BfSAcjNJmrfIGvfXnjafRgjAaOiplsWfd5BR70oLfImdH5TK1mIofn302lZk3Rk9bqkrB3xoaw2w4OTr9KjU50y0knJ6HRSRmHocBQi9uvw+dOQuzWCVKfg2OQ41NuMiiCr3UFZePCQRwK0/xj87l3pQDNPxehXm8fmHnQ5HYBBSLwfoAPgnWGQEmrn6p1UWp7CkHdJLNELkp31spDlrG0tVhyU+Q5/NjnT/m3S9SbbZDHtSsg+fj/592mFBwi+SKC8CZgd5FKufAmJZSITgFfeLbK+9rj53crO374l0P7tMy6qBEx7reuUL9rq/I1OdACKahleVGoETC75hJY9sKXm8lKrWxzrYzZx6mhQJ/HJP5jWo/0HwznfUjDtdUdbg5rqJctfPmXRAciHEs8pCwJLZqpFXY58Dk+er5RFhSNYScQlpKDWtPaZ6uwIqlfSKtH+o9G8WstliHk5Pght6AAEQZllxIaAGW5zOmUP44HHRulSUdSV1ViRcBDW+V9RKlWKWz1o/+G2GBzgM9sblEm4FciLDkAgmFlInAiYKHrjgae1zMIPErMCfNkmAM6L3Wr5XMd09YTtsih/aAK0/6H5WPr2HQx9fbGjUV1nSX5WsXQAsmLhQRIQWdqg5mCp3ZHonALdSrjs2CPYqXIT+XzHNLWk7Ooe4QrT/oNpHNxfnkMW0M8uq1cvBlPiR6XQAfiIBd+RwCACuAk+gB/JtvjihUFf8oAnAsaxwijLBW2dsg939fOE0trFtH9raDOCYf+XdiC7X1gpwLkZkN32pfQSINCbgGO32mb9TeTF/7Eo5gvw2qwItHwypeT05Q2qw6ssXm+XAO3fCt9ViDM6Aw7WfVak5ymUIwB5guJpJNDeqH6BhbNbIV/Ab0mjOAIm1wLSG5+CJX77sfMvjmFYV9H+/SFv8lusw30EcUahdv6mNnQA/GlTSikTAm0z1Du4ER6KH/Ex6MzeLpNq+1JNPPHc2FMhn+mYoW7xRSCFBE6A9u8BuUnjrWWqyW9hM7lPIRrSASiEFs8lgV4C+BHfrbpkMnLzN2KdwGqCyU0A65qfddOyLZ54Tg9rrjO3dvymGAK0//ypIdZljaSlHrEu22LIf37+V9o/k3sBWGDMvQAsQI2wyE/O05uNcOUSqPjtCKsZvGrYxAQjJRd0zFT3BF84SwyKAO1/CNKu3Jx2ZObSehXJDKMcARii7fgVCeRDwAznIXnNmemUfBbe/u/yuaakz3HlPexYeA6Cx2rZ+Zd0S2cqR/sf2MbmiR+O7xX4DWyB38CpUe38jdZcBTCw7fiJBIomsHSWeh0XHzJpjp6ScuQsR8mp+DymaIFxuxDr+aHyNZuOlXtfPlP1xE196uuNQLnbPzr+d/Cbv3JNl1y9sknFYlqQUwDebD7r1ZwCyIql7A7WNelqt0pOxjDbOQi33b4UAWTmN5XciDiIn+Npf0Ep1pF1Ko5AOdh/L5kX8Du4MegsfsW1ysCr6AAM5OHLJzoAvmAsKSETW/XOCVdOQiT88cqRcXGvHIY4n1Rabu/pkjuXNylmSox7g1rWv9TsHw5vBwKAb3JHyM1xzmBJB8CC4dMBsAC1VEQ2aaeuSvbHWvgTcAM5wnFkVFyqhk7/FTgwtyUcud0sB4uL3tQzQgTibP9pWekk5B6sarkZG/Y8FyGqRavCGICi0fFCEiiCQJNy20QewZWPZIZIq+UovD8AzsDucAYmFSHR2iW9w/t/wvTFfCzju31Zo1psrTAKLg8CMbL/3gZ5Fbb/COb2H8UU19Ol1kgcAbDQohwBsAC1DESa5VTVruyJJ+3dMLy+O2IHdkbnWxlg1dvxhP8ctj98NqHkuba18prghh1g+SyqjAlEwP4xsi8r0Ck+jqf833Ul5LGoJOyxZRYcAbBFlnJJoEACvTcbkx50fYrQJp3colImJR3ZEnsQbKnTMkU7MgV7EWyFO9V4jBjARyjwhaRFmH5YjCeaRUhOssh15E18XrR2nSyMS+RygTXm6TEhEIj9GxZYpoqOfjF+R0scV5a4SXkLbu5ixOYsQZbKspraogMQkx8H1SxDAk0qhVzDi1Bz82/Q6xNNepSziYxMpKUaIwfVuJGNxFRCNdKNVmIb406VkrVqpKx1erCdcYV0tk1TqwYJ4QESiCoBj/YvKemsxO8AT/JrdUI6e9ZI5/tNak1UqxuGXnQAwqDOMknABwK9NzPe0HxgSRHxI0D7995mhQ8hei+TEkiABEiABEiABEImQAcg5AZg8SRAAiRAAiQQBgE6AGFQZ5kkQAIkQAIkEDIBOgAhNwCLJwESIAESIIEwCNABCIM6yyQBEiABEiCBkAnQAQi5AVg8CZAACZAACYRBgA5AGNRZJgmQAAmQAAmETIAOQMgNwOJJgARIgARIIAwCdADCoM4ySYAESIAESCBkAnQAQm4AFk8CJEACJEACYRCgAxAGdZZJAiRAAiRAAiEToAMQcgOweBIgARIgARIIgwAdgDCos0wSIAESIAESCJkAHYCQG4DFkwAJkAAJkEAYBOgAhEGdZZIACZAACZBAyAToAITcACyeBEiABEiABMIgQAcgDOoskwRIgARIgARCJkAHIOQGYPEkQAIkQAIkEAYBOgBhUGeZJEACJEACJBAygWTI5bN4EiCBIgmMb9IjZZSMVGmplrSMrEjKSNFS7WpJumlZrZOyUq+Tlcub1Noii+BlJBBZAhc+qjfRlTIisU6qExq/gwoZqdMywhVJiJIPtCv/dhPywaUHqA8jW4mQFaMDYKEBXEe6fR9aUbjJ81V2BGqa9STY0hR06lPEkcl4vxVublsBRG0GRroXSQJ/9fr3jhJx+n7ZI0TqWvGFK+/hulX4tzKtZTlOX4zz/+Em8TcpSzqmqSW9kviHBCJDYPqT+tOOK5PRmW+VcGUKLHlLKGd+C3UZJbvxfxizMX1t/ocfCMw/81I4bu7DDY/iCy3v498H+PJf2pF/4vewGOf9Az+TxV0V8o95+6q3ei8rqz99t4myqrTtysLcuvwuQydktN8yKS9aBOqa9BhdLXvgRrUbbmp74Ml+V9zBMo6fuZF5ejmyGa43/ySx4Q6JGyQelwQ3UeMkuK4YJ2Cho+UZlD+/rV69YM7niwSCIDDtET22UskesPVdcA/9EsqcKqn1JRuTRcdd/EvJJ9D5f8IIUMZR6P0NGPEJ/C/jJLjSht/bAvz+5uOc+c0HqefN+aX86rsVlHIdA68bbqbXotBv+1kw7tMvddSrL/gpk7LCJ1Dbqo/Ej/AAPJHshZvP1uFr9JEGcAjW4kb5PO6X/4ujzy5tUPM/+pbvSMA7gYbf6+NgY/uj090d9j/Fu0QfJWhZA9v/k1LyVFrJs/P2V8/4KD0SougAWGiGmhZ9FYZhv+uraC2L2hqUGfrlK84EmrRTVyV7waE7ATe9I52EjI1NdVzEFWi5DTfFn3bMVAtiozcVjQ4B2H/DbrI3bP8kKPU1dP7/FR3lhtFEy7/hpNyB6Yifth6o/jbM2bH4mg6AhWaqm6ubYeANfopGh7EcIwBb+CmTsoIjUDNHb4MhzNPwNHEsRjInBFeynZLSrryAOdZrnLVyd1uT6rRTCqWWCoGZj+kdYTOnoMM5Bp3+/4t7vVCPF7WSa6or5M6mfeJr/3QALFhi7Rx9IW6O83wVjaevtkYVH2/Z18rHV1htiz4eT83nOA6GOEvwhWmCNajb7ViFcHnbTLWwBKvIKnkg0PCYPhXz6WfhN7AzOn4vs/getLB4KaYJ8LB3u3Lk8uYD4mf/dAAs2EZdsz4Vpn6j76LXyQg+bflO1XeB41t0TdKVszANdDrsIBN453shURToyoNQ63I4qk9HUT3qFAyBTOR+j3wb9v9NdPxjSrLj3xglYmhRz0cQKzA3TrECdAA2bkgfPn+qVR+GedIHfBA1QATWdm/LudcBSCL1oeZyPUl3yTxE2R8ZKcUCVgZrsV/CdMe8jgZ1d8BFs7gQCTQ+rKdgtdI8dISHhahG6EX3Tg9c2rK/+nXoygyjAB2AYQAV8/WEVr0L1lf+qZhrh7oGTsXX2+vVfUOdw++CJzDhMj020S2zML9/fvClR7fE3mWFrR2N6rroaknNvBK44Ck9rqJTZmO0y9eVT171isD1izH9Mbf5QHV9BHTJqgIdgKxYvB1EEODmmBf6pzcpWa7W0oiVAC1ZvuGhEAh8/lpd8a9Vcg5GZn4Qq2j+gFnBEViAOIEzmFcgYPCWi2v6m67sXCrTUEwjnvoZn5SLt5a/wRH4VhTzCtAByNVoHo8jDmAdPOJMEhePojZcjhGAGzECcPqGA3wTGgEEeh6MJ/5r0MY1oSkRs4KRgfAGpG6dsex8tTJmqlPdjQjUP6oPRefxUxym/W/EJtdH3L9v6NYy4/IDo2P/pReVmYt+8Mfb/C7SpMP0WyblFUZg/KV6HBI93YFVHg+z8y+MHWIjznA65U04x98RrAcv7GqeHQUC9Y/r/2p4RN+Izt8EfK7v/E0AnHnx75AcwOyMKpEl4BcZ++ePMGO5/v8PlrDEb6kwoGhlyvK7ghGXZ1Z3VKblTah5bMRVjax6makSR66prZQ/TZqjac+RbanBiiFd7peRnvrvGO4/dcO366Pf1/cjZpnfxp/NiTy+ns96B+lj/7+9awGTo6jWp2cmu5sQIRcQBJLNXh4BQbgoyEMEEh5JABFFQF4CIoKoFwyS7G4CsiBJdhOeUUF5yEP0cgGRdx4QEkBFRBS4wlVebpYQ3lweIdlsdqbuf3q2Zmt6u2e6p7t6enaq82W7uurUqVOnauqcqjp1Cvy4un1vepyNJgt8rFLAKACaGA8nEZF7SsNZ003NoKmpwUqg5WN94+eJZRjebgDYmBKgJsknB7CCsnu/RX+zj8z6zGPAqsOBjmWiqX2h+CmE+4MQXlsUzfTl2X45+5fCnkmVcapSoMYxTD3Bc10H+MV+EXBi4hn2k8BsqNZjFABNnIew/h8dqNen6SAdeA1Odw5AQE3N5I14JrpDmNhKOQDDwFGsVLXMEf+Ni5AitZeplCaTr5gDrYvETr299AwmNGdK4VUQ2gPCrGjWrwp7KdwlnIpapnGcDEs4+e2WNhzwSz7wDa+CbsB9CLfw1cYyOs63UQA0cTu1np7VgRr7qJN14DU4h3KgpVO0YSvnfgiq0UNTTUxkHEjTMWIk/X3sbLFLZDgNotAcgGD6KrYd/wIlbUJBSDNWVQiXCjOsKsxLwUrhzzDOfCoONezEV2k+tWw17MTnLE+FVcPOfGqaDPNb1jVFJ+DY+NPsLpmzxvkYBUATt7tnWU9rQZ2lSVrwGqRFHIDwvwmD11wIf/MbKeKMng8Imm0yGXpm/FzxfT0lGKxBOICZ/+Xo+exzpMHOpwo/KcTUOD/hSvN54a4UX5h8TAs/jCNI2FkHJw5BW+cE/Q0GgrH2f/zuzKOLA7AW/xtwR67V4frqPVe2Wn/WRXc94918vtisaT3dz3vU9cyHatYdA+EV8CLI58vNEzMHOhaLzdYR3Ysja3sMKVoKMflmgCBhL9igeFR4L5zl4sulq2WEDXN+frzKzKcW0mEfcAVuG4yl/5vZjWS+jneOHtWBFk4ljB2ABsaOnSu2HdlPTxrhr4G5AVDCh/wP4GfhqgBZDGgEHLD3+wX93Rb+LKz4Ud9y5hx09ivhZX6nIORyJIzfMMPx44WzXHzQ8krBMx3OOqnlB0yHf5EfYPvlF5xN92MUAI0cxkzmMR3ooQCcoANvPeOEIdoOaaLHsbDXXM98SErdoYSdycaBxl9APC3C+89YDv4DStvELlEKPCnI5DcnlhJ2El43TFh6uB4qjjBhP3Uth5/T+WFc/MCtMo5d3qa7/5stAJvbev6wj/jMenpXB/b+fvqPlbMsLYaGOuhNMk4c8fsclKqloNEc8UtaQ1l0d/caOoo6LOx8mUcHB3DEb29Y+S+BQMwbu7oJNDVOEqHGxRnm8tXynN9qWtBwJbj85AlKh4QXdE9TI32tY5Ke/m8UAG48jU9zp3gOS5o7Rl0E3Kpe8mqbNT1qvPWGb3yn+AL23BbXiKX/Gxj4XsgSvQiF5UUM2v/AtOHtbJZWZ1L04doMrRn5MX3IV0Zvu0Bs2N9Lo1L9tGE2Q6Phj380jqa2wJHLBOTdDsu8WyP/jvZRvIQ3Ouhcbq2hQ8xV2NE3FDz7TUGfuAvCn4+k8ZW2gzNRGeZiZZrzrabpDvP9Kha9gL7Ll+y8yL8FCLA3sFq0Fv//b0Q/rV1N9PElU6yP2WNhOkujcDPlJ6wRNAqrsRuDvC0AvwPyb4+abo3vnYEv41pnWU8/dfIDWwpPqbQ87seaGmgqlIBeBo3yMQpAlNx0wQVr8i50sBkuSaGisE60qqfV2ioUkjrP3DxfHET9dHdihWCOnoVy8gdK00PZEbRchw/95jliRzgkmYjBcv9cmg7A6L9pErsF3GDft6LdOjyJtNUqTQP+/O8pCHeuiJswU+PUyqrxUYcZH9H/QtAvh8Beus6iR3T40Ge7BwjBSRij90PdJ6LMTcoqBMwDtb7ObzVNhuXbD6wKM5jvgc4p1mGcFOVjFIAouemCC45kJkKnXuaSFDoql6KDe6ZbD4VGVIcIeNkfs4PHkib8MdgtgtD/NXzm34cZ7/txN8242eIzcNf7FQwM38BAWHVXpWr9MYu7BacDvqHGmXBlHLCX/VP0x0LuQUEzVLgxkEx3vtW0KMKCHsJ4efM6QQt1CHwmsdTDCgHSvwbF4wTQke//ss6c0StcLq1Ueimcar4c/brzEOtEjorqMQpAVJwsgad5rvgIgiZ6ZzKCbsb1wCeXKNokuXBgqy4xdgTRk0j6lEty7FFYnv8jZt6/6htBd6w613ondgI8ChzXJXZPCToOS/DHgr4tPcBijTZHBMOze/pSsU16PT0FBW8jT4EmhZJ8c7Fq2PntN02FGwhDCP0ZSu+vmiy6rWOK9Vb4GkaDgQ0jszk6GfR9HbzKu0CW2yIu9bBLdYt3iyvFPwkv3wqslaOf4VrhyHwFGAUgmr5SEgvfHgeAyC+QgeDox2xtXPcM642SBJjEAgfsvfGP6Qlo9zsUIqsQsNtO0J1Y57ywZ6YV+b0RkVYJN/e1NNExGARbgTdyvxaBaRXUDsW3M3A+k4F4bxzmZE+j/7cUCXQXYWOzS8bLN0eWC5dLH8TxWwj+C3Hm/Tm7rAT/wbG843B/5QysDOyC3wH0YTx+6qnC+YFXYdS8HJaPoLbOqVaX/AzzNgpAGO75zDu+SxwJRv/WJ3ggMCxjX71ipvXdQJnqFTgvyJbhB7xf1ViQo14MHzfjXvDZq9qsnqrRUWHBfDcC+NdeVR6CdtgEfAs2Ab+ssBp1mQ2X+mR618E3iUV7FzFAFTpeYc7gN00iV+FlfgGrG6Ib0w00Z/aB1goJWitv22gyh/5PtL9Ns1pHt7AaJyupxgUJq7AWfbNzsnWjRFnp2ygAlXIuYD5t2wCgA1bhW73aaq0KSFLdgY/rFNfxnfTVqjhmO3fgBrxpr7VaK6tFQ1TlsgFlKks/gzCpmp0AtgP2hU3A76Oq03DHY58rJzq6IMhVgaKGmRHqd7mwW7pLHLaS7hT9dPa8Q2u//5+3SBzUL9D/2U7Apa5FfUmmy7dMVL/9hB3tAiV4365DwvX//FKGJMi8tXEAR7Du1YUcy1JtunAPF7zwMX9atYQ/BNXzEP77rGizjh4Owp/7BBufdvcSG0xNwwD4YTX6CY7X3s6+NqpRdq2VCaO/c0DzoPDnCvBSNgseZ9iPMFJh3JbEVdxszZ+jL3RNtr42HIQ/s+viqdZDTc20M+r1Q3x+xHFDFAFnnMoTlX9+w4xPwQGPgbdNWxSu/xsFgJkaw4OOcrOuYmCodUbLPJEIgzZddQyDl738YanrJ2FwVJIXGvo7GF7P7OmlnSH8By2uK0GWxDxwztPdal3Rl6FtYNNwHf7nhUl8tH4Kxmy3xVdcbZbExmw4XTLXpl4RIEMEFqfxo8L4CbMAc+bLx32EMs6EI5tdYbj2uA0zjP507GT1oV6XwXhxAjhwTaFqqkBX+ecVL/mupvsJwzCxgcL1f7MFUGg1/YHmLvEqfmFjNZV0DQbjMzThrlm0fM98rpGewimMyJ0xlWIKBtylvSk6/s3pybFqLkVvFGmwdZmEet+GPh6vL4EstXbPtOZFUYfhhoPvmc/k6O8Q6s0FwS4FDlfWTdC4xXnBSoYNzfMYjvIdWY2jfJKkuN/Tl4j90zm6HXz+ZIGvKl9UHqrxlYZlvhBGgXmNL25O1Wl5WAW4SVfVMfs6jc+268Jfq3izTfTTOIU/z4JzFl2wYi1Nrifhz/1jRau1bF0K2wJCzyVYXn0Q/J49tksMvb3OK0MdxWcE/Qbz+hZb+HO9vWakUpg4YaSyoKY7w2oepEEJvBBOaybWk/BnFsyfbD2C1YDPIPhIgc8q/ySf5Jv5WGm4ON8cnFL4vI0r4B+zAhCQYWHAYQi4NYTRy2FwlMqLX95fYRS1WymYekqDF8Zj8UPkI5jxPDl6K2vR0XDR/Gg8BSa3FGy7XAgPhj+Ki0KMpCtTDbRz97T4nSfFVceg5bQvEt+GMP55kTBShbdEqMa5hd3iOK8znujdbIqOZkEoUdfru32x+DF4f55dfyefpBKmKgeVhFW8MMvBMcVdug62PgjCc7MCEIRbIWF72q1X0CkWhUTjmR1GUZ+Da9ezPAHqKGHz+WIzKETXxlVllPU8fPHvbIR/nuNYkr8A85tD8L83jjbAQDaW+iiSs9Fx0Ku7jBkPiLEYaxYUCX8uVAofDrMA4aec8FHzeIVh6MezXyP8bY7S3CnW+RDIU8HhviKeS/6V47kq3L3CEle+yGb4dwi8DWYUgDzz4vubo/k6C4MS8GMWfjrLqAXcI9fTT7R4X3SpPJb9/7i2l/astyV/F1YURXW3W4twz8A+EDSxnBLgbbCxs8UuRUTU6QfGgetRddiI4VEFhSpMvOJVGA47caj58uHHcbx1zyR58bNprvIfzMYXg4Qvov9/UFbJcvKc+cpPqXhOL26L0wZcGXOKr8coAL7YFB0QnJc8zEv10WF0YErRhiOFYpHqSK6HT9tZTRqe62J4+Gw/Vnb2ebvDwkVk5nFyYMUM668QIXviRMRrzrSov6HwpVIZW/BFjbqm8LUtEUdDfEx2CIf8WK8KDFW4qPHBwg80jaOJfANfTTEpJmLhu/9J3La4BwT56yWFOfOcH7VNyoU5nR+ZF28cCQ9kZ2YUAJuDsf/Ru1Qp6AjYG5wee60SUCBb/YOMX8REyjV8tj+msmq2GGwH/APXte6OGbp2l8cY0HaHz4dTa5ZZIQlnq3+IhSttQcK4VGEuBYYsQwoOGa/C+gkLuo5vqOPjcBKleQ/lwNzDrBewPbIr2uQlO7WcYGcgPzDO9uM8KdoNCuApdjk+/hgFwAeTogbBufA7MBjmO0PUyAfwoWGv5KteNaFPLFpY/f8YP4Jm3QTyzN8cu/TPZb6vAvdWHIgpyyr/uSqDxN5rF9/5UFnu2s41Igc7CL64xinAuVoyzik4ZLwKUybMXv0wuzXHjplPPh7eHsG2zEQI9tcL7cD51LYIGub8qqLA3/zkaB7f+ZD/KP3XKACl+aMntcPKoTOcrwf5ANYUNWFJ9HdbdohRWstJEHJ2+ANvf+fqJgnGVUvNzD84l+1Lq7J0MAYtrTYBGNQ27VtDFwensLZz2A5/UvQ9WyhwVVTBzoLCGaemBwhD+V3KXv1sfOaPbw7MmWq9jrGD+3+xTUCYdnFTGuCHINVPs/0QZhQAP1zSAIPbzG7VviQKD1UNjXSVBvKTiTJNF2gnLEfPWmvpS9rLGaYF8M2HMBg7GOJI7+kAQd/bslNoXwlKUjPhTpD8pMJNmLsJCnX26DcMa/+Rjab/V9ru9s2Hwu7/fYXZu5dyxoX4bRe1fTmbRWfOWirGl6PTKADlOKQxHfcD6F0FYNpTdHLzPHGSxmokAvVWc8QEEHKsTmJyWXoPZ9undHdYeoWXzkokAPfKVuvPmJ1+UycpbBAIJzj6f186KxEAN86d7wADsCNdZ/+qcKg0nKflXexlH9AxyfT/AE0zBJQNAzGOnFhY/uc2cVMCKhH+sn1Ran9/+f5vFIAhzRNfBDyn3YmGf1R7iVm6ftxcMVl7OVUsIK1ZmcJqTQ57y1+1l7GrWM/hUjSvgKEug/7T9VTslHq5IwNLyxfZLNQhTFgQ5YXRseaoXzQdFVf53g6u5vu/l6B3tiUX7QXrEg/Ps9+YuUhsUYpiowCU4k4caTk6A8KlX2dRmA1l0kR3j+8UX9BZTrVwb9UlxuKHcbzO8nHz1gXGyU/EHF5LZ+vcBuN+D/wzI6Y6ceimLxXboP/n9+RdBIFNsFOYMBw/fuIBBgWD3fs+bOcxfyLhQFMTnQ3GPldYCXC2HZeito8zndP48YpPUQPsNWbZMB5/jALgwZi4ovmIFBpB/z49jAKxRLhwOJ4MwG2IHbzkq6vNsJ+2HEZ/dWdUpoufEq+9ldJEh0MUaTMK5Jsyt7xExHs5kaxgTO90H11YEBReQoFpUYWJ33A+32PYu74opurUTTG8lZIdQUdAgK/2FOKqcHe2GXNKTXeG7WT69g+Xefd/bYNm3bRiBBX9eB3Ngjqu/XgUROSGOH2wjO8kiIDsRKAY1yW2hOX/t3QRww5sspmB2ZWuQuoYb880uMdOabQHwCyooZ+mD1cW27N/i46z6+cUECwQ+PEbz7BOIYJja3yrHyeZJ3oOzD/Qehnj8qm+2sjZNkxOubZF/8+s8+7/RgGIvk0DY2Qvcliq+W7gjJVkSNFmyPaHrfNGc5VgSFQezPBO1UkQVha+u/Ic6z2dZdQ7braFgaS6Qxcf4Hnzuxt3DE+/AJl+OqWsEGDGlhMUDOMUMMiD1a8z6u1WP2ZFnI9tD0D2NcJ5eezSDjY9ftrQBQY3/p3l5RfAKABxtnSJsrC/fHdW0J0lQCJLglD7FG6t+8Nw8JuObY1vR8YYByLsey79V6t1jyPafGrgAI6wTcN8VcvpCvT30aMb9Z4Q0cASXygxccivfrkM/DaCUvEMoAobhlXi7PP+U6x77TjzRysH0hnM0vniIH682kxtqyBhCz5hsu6u0Y0CoLVZgyGHJTs78dC2H6pSgyOIm2ZS9FgtGwY2zxcHYchqVusVZRg+vL8fJT6Dy5sDr7VaK9H3A99m5o2xOAVGnN8ojqn9L8zqpkBYbGELca6Ol+DwincKEcYh4/DOjNC3tcZFmWeQA7MPtFZgtSXvvEe2ASerYa925HgnrJoPYUxmXI/dGgXA5lwy/thHzAR9PTZqYBMALf9B+/Kc2AqNriAcczk1OmwOTDlawAaajljzqZEDm2xCF8Nq/w0dRUAB+CL6eYsO3FXDKeh0u+xSgoEFAT9uQsIt3wAcBMYCFkp2XvMnFg6MHEedEPh5V8FcokOI20S4tZkbrGxvOxP+WLS3m2MgowBIBiXkzVeo4ie7IC5ysDw6CvrjwpYu8YO4yoyiHFz6MwZ7W3njpygQOnD0jcCdAuaJlQNPnWGtR4EXaCtUuM+CtJWnEfG0RWJjrFANeqT0Esm1Y/UAADJzSURBVAxqvF+BgqVorEWb/q+x/dxQD1yqdJEt+BlACnFnu7nFq+2shpW8uX46zVmuUQCcHEnAN5SAs0HG0zGTcnlLp1i8+XzBRoKJf7IjtZ77v2bVudY7iWfCMCQwtY5uhgL8lpaqWTCYGybPCAue5GDhbVeHB3l+1IE/iJAYmu9GY/hnczT2P02NdCMKfdcu2Ktd3eIVQV+0cqC0LU40neiskFEAnBxJyDemQoejIWOxByhU2aLJTf30XC14DcRxRi3X8GIJmv/NLfDEBGLlAPsGyKXpZ1oKhb0Irgo+QAvumJFi4PZ2+ysFhFMoMI2KQHANI0+6gebEXB1T3AAH2DcAtl9+an+WaysGYhj5lu2u5lP7QIpa2hYX93+jANjcS94fNorCqQAtQq5Ubdk4EMaIi5s7xYKk3iT4yQ4xGtb/E0vVo9I0XFl7L1ZguivNb/KF50B/iq6CIrYmPKahGNC/47OxGVp8JDH2kS5B+xYGf3WQV8OqIPAbJrrP7P1H0kwVIxlp0c+LtgHcBLsU/DJNbXc1rLY7x+eK+79RACpuJv0ZX223luTgglZ/SUNLwAz7PzMj6cUkrgZs0KTsfQ4lPVQMBM8loRCYzKE5wNsvUPBuCo3IBQHa9wCX6JqKsvpRB1UAeIW5VqoA8BGGUfD8mmLGMCTWvm9B0HVllQAvQa+2s+wD8p0q7v9GAUh4B+qZARecWbqtGmSic2zJqwG4UOUu9rhXDRrcysSG52Fu8aHjcvSPnjbr96HxGAShOVBYBg2NqRgBjF63rRU7l2LKB7/gOTHf/1UBEEU4Ry90HWL6/yCnqxfCkcAFZZU8VfFjUlXBr4a5b/CTf2/bsXjQzssoADZnkv2nu4+Ow0HOpVWjUtAROHL3z3Gd4hzqwPBT5Qfe/76shQRLz6xTC63DHGnPTOt5DFvP6qhmY5Ym68AbF06sjuT7vzrI+w0zkV7KgkW/jKsOppzSHMDdC89BCc4bgnu1rRTsXukynt/KA29bB8vPogQZad4J40CHlevvpS9j+fL5alGGmdNo+Ny/tLmR/tk8T5xULUXAdlwE/wVR8wG8zeFncmPUeA2+EBwQ9OsQuT2zwifAAZ6JCU+YuUTsipneJ8suD8vBn+ujhr2EP+IhDG5OePXrijwoereWbGcp2Eu0qccqwkGSkUYBkJxI+HtVh7VmXYYmQVC9Uk1SeQkVM/CboAi8CIvqU6EIZOKkB2f/99NRHmwefm87YtKB3OCsiAPr0/QbWzGrKLd3JvShmlUA+sVA/1eFut8ws8Qb9rE5U63XvblmUuLmAPr+oAIcXMjnPIR/DkrFRFkX/BbMU0sc2KpLjE0TPQ7NbWwi6M5RDzaYZvP5bft6V81E4XTCryCsh5xnDVsszsh+e0W7dV1YPKXy87W0mfU4vmXRpwG3KWai9jW1MLxinwNs+PZctpHuTMLlQy2zxa7ZNB2aytFYDBKbYHq4CZS/1dkcvQMF8A3E/d52WlWqwhGkob0fQnsfGAGqYhQ5+vdaPO3RtkjcgIqc5Dm4y1kh19ZNaLjFARR97/S5U61rOZt5ksMBHNtbDmr2L1Dk0X6ubc2ZPOBx90ALn/aIdfZWqIQJVMwBPh6Im/wOxOmAx7BkXX2nPThbDWXkF7lGuhTeBH+Dit3Q3Wr9qeIKlskI4bMLBr/In94M3RM50gGEcLB0LCwnzoDntonFu3F5ACgCAwEiKAjXQugtxYbEz7EPfsdASiyvbReIDft66QcwOj0ZdG4NRZPI/kN5srEpiW0gnkXaD1zrfgjl7zZqorl8rW8+Ntq/KPIBYIxcAcDv54vA2x0ttfqxwThsVwjr/OMxuBcGfTnb57ca5tyOvGjS+wawmleCOADbq3vQ5vkjn442K6sEloDP9tv9fwXGbvPUGgdemWm9AEG4by5L7yWFdswOR4OW0/H/8ea54jk2GOQZb6T0wQARAuczkeJkZIJeeHO6Fbn3ObZXaO4ST+KH+l8YtCf6pZtnvPBHcDuOYD4+fp74nN98FcNhGwfK21l9a+ll9KsL0ZZb+8IFWwzAnoY7/P7JfiPGXiY29pUvABDwLw8A7hsUA9/OvoGTAoj+D4GwY2Hgl0Kd6QsTFvSSWf5PSiMX0wFd77HI2xt9BauOu3BJRgEo5nfNfLESgEbcP0lKgGQeBu0d2WAQs9nXx88RT0IQXvrvXeLLYe9kHzeCdgTu6PusFbGQwUDdPEfMxcz+DyB2d8mXoG8cwdxLZOlJKFMzg+b1C89Ce3wDPQ74K0FrRQob2iQDpeU/U+vpn2O7xB5+y/YDt2INLKFzGjxiCtrBT/lJgmndC1tH5dz/8qyPn2AKwXI7j/mTOA50HmI9iQnKanvFhqkL1q6e8Fjxsft/9INp4lg4fAl6dZb1dxwPnJREJYC5zoLBStPuEITnQJO9e8OR9AGWjZ9hhYANCHmG3HK5GOO3hdJpDbN/FA5F6hG/NJSDY++J45rodszg28rB+klnhQfK1Gy2ffADHwRm7GyxC4T2M9xGQfJ5wbICgT3FJ3jLwwsmcDxOwKDvPBo4X7kMVu0pAPgd7Rq1ILAFSkoDf8vx36T754CF9olI8BfwDCjAxgbAfzMkEnLlLOvZ5svF52kdLUTjTkgkkSpRKdoF2ufgPj6uHYNS8BZo/wf/hzB+FVOYNWlBa+ATfg310xq4b12LtDWY20zFO/IH+8HLo0KaaaJ7dBitAeeJUJiaVrRZkbiH3mqOmJBJ24qPbwXMN4+w5QElgLrbrFt95ykBiO2Tx5D8pRIgwZMS9Fs5d7HYAG6/GzNZamhookb8JDJQzJqwAjQCyv0IKECN+C2kYZtxCFYAUrYSwAJBCoVKw8w1rBjA2jwyBTh4Q5gcZTkgbAWNx778hL3E3r5vmIH+r2E4LVsdA6CBA2zAtX4t/TcadKoG9MMXJW6egzX45lFUEIrMjfiJnhwFLi8cUJAugxLwQ690P/G87J9ZR38Drc1+4CuCycEyIEWTojAIbZ4vDoLxx4MV0VEqU5Y+3T3T+kcpkCjTWNBDmh+PNjwKeCeAPy2B8Ecx8HOBEg+/cfNc51Sr+sbEgRhRX8DnLRIH9Vvo/7LduPoRhOFSenuzBTBM+tJLZ1kfrmi1DsEs4aJhUqVYqgEL2xeiKAiGj6frFv5MJ2+njO8SR4ahOdNHv9Mq/Jm4FDVButzLimkYWjkvjh5qEdLZFG0fljY/+TuWiUz7QnHOCKIe9LdrwJvJ+N/iJ6890DNgBAO+XZ6KJz+jfMkXHQaoahwQI+hFHe2Pk0k7GQWgas2qp2DMaC6AXn8IOsyHekoYZlgt/LhCPvatiSmaHRKN7+zwWdDlG9gBiFUKXkrczxGt5RODy6Z9q6k9LHI++hoWh1v+dE6/AsA39/Wuo0cx2F6KmX9+u4WFMD9+3nLZl98SPqow8EEhed6NNyYuORywb2cM2+ZcHe4/sj/lwxOMApCcdo6MEnbQst6indDcz0aGdJgigoVZ6BlQZhSdy8IuLhbBMHBbe8UhaIF8j4NFVwbNFgYetgs/iOLyHbRT5IIK3Ihk68eLP5j5N2GZle/w2NOGkYOvHMzVbwZwi5dCf+jgnR+7w8SjPGwZ/sumzfxJNgfgJMwhvIO1P9dO9q+BMGxLPmUUgGQ3e8XU2bOmdfbAc03FSOogI85Vh98C6Kezq8CqwGU2b0AHYBCI11AUWwFNWds/RCgWQekJvVIzhACL/m1IXIQRmPlfjXn7bgWUXsKcAWSaOkirwl2Njyqcxx++/xcqaAK6OABl9Z+ufcTZF5gAtd+UCEP5G2MUAF0tlgC87JoXRlhnoEMcB0vfNQkgKXEk4ITBqjBE4XjeF3HkL5ADHCzh34fTDZ9F21j8P0v0ebTRkiB0QCDuiOX8liB5YB/y5UDwAIYVemf/CNpE0ooTEydj/TrYknyOjgharhNe9IdrJyc+/saqwkZu8VHEtS4WhwPPSTYuHqTVxzloew3SKpwXTJh44IefCeP/X22bhIZT3E6yH5Vqc6bfDxy3PTvySmh9DVkRcoCPY2UEfRZC5s8Roh0WqLJZONkI8UCL/qrv7LCMxz7wl3DnwOHds6z8VZ/I/Gqr9Re00RSkneAbFwCzFu4VCPII8n+EENtHfYLGwx1xu3o3Qc8M6+aeVmscjq1d77do9jMwrkts6RfeDQ6K2kdu8WHioEQFUtyClIWVpUuKBmLOzAMzD95+w+pAHzSvH3jgh2+NUP3frov5o50DULw/Luo7XKLaP5xhTi/TB3C8dhOjADCj6uBhz4EQMnti4A51hGy4sSqTCmcsCQVgd788wch/No7w3e8Fj7Tf4Eft22gORmz5vWUvhEp8yzzxKQi8TylRJYPrU3TYqjarxwvo1TbrNMyg/+qV7owHn77gjAvyjVWSD4LA+4HFABi9DwQU3LpQfBGifkLRgM0DND9lBuUCjBPWOcAzHn7CxAMHblyMXLGy6TJ/ouWAhXZS+06Ydh/ICxuAjYwCEG0zJR4bBu7LsB2wDQaORxNPbAwE9o0IPQPyJVTZW2NPu3VNuSrBoPCqcjCFdL9HyZChf32Ai6NydJNPy/vLC7SUCWCgGVsGpGQyZtQ6Zqp6bAAsOsCujDpglwozsHNAd8aVys95+fELI3HjjVseI1esGL15ouUA/GDkt3C5jfmRb2e/CRCP35SxAYi2mWoDGwTRK1gN2B8a4NcwdPTUBtV6qFx1rvVOGMxQpjb1kx/m1r/3A8f+HIDzj35gITRafMEBKNUQQAEgf54RcYTsYb/lY7VgvF9YNzjw70O3+JBxWmwA4Kshf2GV38GZK+EmvNXBXMLw2y9eNb8alriA5xOkRbHiEswTIQdEGhe/cbvzo77Vdg0e3jSvTURIqEFVOxyA46A7cWRwPJZXv5fU+wSSzk2/BoDYr+/3Wxf8KH0pJRgNRvvFCWOvDfzCYr/RF63ptf5vo8Qtg6Fm21A2+vzSHwBOyxYAbDk2Di2kvQZzrhynSSEQMtwxyeoNwC8DWi0OCFpfmPVLGrz6SLn4wfyjjQIgmVHHbxihXZUaSdvAPuCSemNDaE91PldQsAfu+/Y5CPb8DLJ8Y7xRHiQPAQHq29oby43b+cI7wn+d4Mned/luZUOo+lZ23PK7xWlTenlZvdwgzAI8ATDsqMiNNyYuWRyAvcoomyJnv+FI7kdeCiGne+f5wCgAzCDzUPc0633YB0xfTzQOQ9NN9cKS/t6BH1alFfZ5jBBL2DuOmy3KCna+ThfGelv7IQdLzb6PMGIJ3reygOHkWD/lY1nyG37gGCbXH04BAE/yA6DfAn3AoU102BWQfWTLa0COM5554Bz8HUpHOhs9X32w3oAE5YAg7NbgKSXs3fpW6fY3CkDQdhju8Gz8hW2BU/gIGITGT6AMDOslwtyIkANg1r8NRWoE+FnmgWHOlWVACsmw4egufJQJlLLoH5IVzoJwbO+7Q+KVCJwq2BWzkpIwCjjhuFm3+h00rGUFQNP+N9rlD0X1Czpo+4XnQkoN8JzuEPgcpebB1lBesNgJ5k9SOYBtudF2uzGBQfpHadiPzApAUlu8ynSxwOhps87CNcNb2BcM+VzqrjLZgYvPrQm3tJzLkOexPicxEJgTm7vE7fbdAY7Elg4xBpf8PIQrYPdyJHl+YlthoWeiSwIE0yKXaNeoNNHPxs8Vp7kl8ioFZvRLsVLQ5JbuFrd6rX+DQbf8qKsOQfW+W1lh45qacNkSDdgsuM3KSg/KeUMvPzClhD/n56dM+VZYBdguxPyJgQMb+Bb8ss3l26svEX2YiYFwU0QNcwDeBHmQvID/2xfJCPom9nOPqeEqFZGOmWmovWUoAPfh7nbfD0bloxoaab/xc8RvMUT/HkpBA957Yz/6KKQFckwzYhQ8CgZ44IHwd3CoM9VvFsBeC4XlDCxpPwBnPk9htrgDlv0nQRhPRR/w/+Tonrc7rFDL7aD9E6Ah0gf103GygNiwrnWRWIC2PbfcDFydjQcOy4Gd36rADxCGI6xQ/T/SBjHIPDmAvroh+sfg7F+2uVQC+VsNq5hkPMcVh80KgMonEy7NAb5kCLcNfj0zEi5Uc1AELLq71l0MwzgulIc69pIXZGZtczhFm0GYnYk9/F/jZ3sD4k73e5qg0ELgPR8ZLHz7CKzL0F0+wIpAoJTsDmH/I9Txbry7bOFfBOHjw6L/8gFVEsTKhGsnN+SoUyilxA2njMOpj4sQftP+Lh50ozP+Y+Ry4OdwBeWgH27BWc2TcA7k0P+5fflR29wrrPYFLxgYq+L3bR7DgWAcYMEDZeDG7hnWV1LraBOcHvgKBlMe5LUsqQajLhg09pYnBMsxFBrHKC8YGqs3Bo59fhS0hDenW2+hvpcFzRcGHgri8+yKOgwOO282+qt7wQttTnAumWKx69YjbNqdAzBHqgN0VGFnOV4CQy0/gv5v19H80csBCydzSrWv2qYcVmE9+hfG7A+NAqC32YY9dr5wCKcH7oZPgeNxYcy/QUedhOXsTgxwS1B5/5bnVeIUZrSfDlv0ylbrz1CC7gyLx29+GGfesnKW9axfeBUu20Cz41y1wSrHDLX8isOpAEcOfRaCZdUen6AVgXUeYj2JgfgY/BZ67QGZsXgJZa94mYcH9HJhTlcHfq+wKhBy4fu/TZf5o5sDny6pNHLpanurbazGq2FBPUYB0N1sdYYfKwPL+QIZvtwGCsEWtJb+De5GD8b+8XR04JvBjqeTxBJY3e8QBT3p/B0L+ldAcvQWti1aK6WZtyzwo/9epfkD5cvSbaXuPvCLa6s5IvQqjVtZ8Hfwglt8lHGdk63boXBtB8V4SckBnAdmftSBW1UK3NK88pSLV4VAAP8UNn3mT+wcaL9/oP+r7VYqzBSq6c4+xWkMIuhFYwTInDCPNg4MGBE+hAL4f+EZO1vskknTjliG/Qxm4TtDSdgS3uLY0GUMuudmBUDNAcxQIxEuUHy6W7rEIRjol4H+Jh1kQ5Csxv+DV7Zbvs//u9HB2zfNc8T2sDtoc0uPKO5PsIM/OQpc8AEQepXGjY7+LD3vFh913LxDrZXAOaVtsTgB/ftyDM6fLAzQPBjLwbpU2GMQH6IwDAzuZeMHy9w26voafNFyANf27lRoz8F2K234qfYXjz6B3///Yuw1j+FAbXCgZY6YwYZoUVMLK/ft+bbEKPCO6xRHpK3gxnblyraX7TN0RM90q0iRKpevVHpLp7gJwuekUjAVpeEqYRwf3X9A+asIhZoJ7X4hGyKqcZGE19JI3sKKBFcAJO2LxQ5QeMdbWdoV+7CNUHxXY1VnDQZ5tknohUrwARTJjzgug8uqRvTT2o4p1lvtC8U5EAaX2kWpA7xXmAG90pR4q5+2n3tYNP3fps38iZQD6C8/xkRpZpGiyCUobVg27AILf9+jzQpApE1lkOnkACyrn474JJhNLq5EPQiBSBQAtofAOfk9scZ2P/5vGgU/YPq7Cj/wgyH8I52xYpvm5PGd4kUMLhdilp1fgg5JMBSVB2AY+rUoBSuE3gFRz1TA05U9VRD+zN65U6x/4MX/F/O33weK5bP9ciB3zgTd4mUcF+AV5qQ0HYBXJP2fizJPtBzA7/NAW/gzWo/ZfNl4Z38h6mFD1Uh+9NFW12AzHHDngGikv7inhIuFcJkUDkNxbjYKxEC9GwbdR4tTgn/h/Pt961L0WdhVRCr8JSXYo78YxnBHQyC+I+MqfmfpItw0eViUwp+dJmGb5osV0+SVUdA/vZKSGg9FlY0K82O2l0BX4+WgzxXyCgMeCtbBSa1zvdPV8ZxowDiym80Hblt+1Db2G+Z8Sh+AUvEiRxkFgLlgnprgABuwgdDoTxZk7RlQpDxgT4p85TKQfhU/2MCzK8ykn8fJgv1XtFuH8/G9SIlzIONbIfvX4rpeCHCUG+hsPOBzqN/NOAq5FXxEXOBAHfoz3ahB+IMqGH8GbpPQlQmJoOtg6wPw+nUbjTKYqwN7UdiPcAAebEFMDEmaya6JA2tXYXKSgrMw9eG258dP+3rAoM15BcooAMwE89QOB7BnGvkpAnbCw0aJOriAkxB3QRHYHjP5A3ES4upSN9BBmL4Bzfwy/N8HM+mdsJ3wqA6a3HCu6rDWsABfvY62gt/xk0HLA25wStyfoKD8MIu9bN5KwI2SoQwTFbxFQXhqjHR1RiLH/nrk/Uji1vx+0sbvMbAXCQWfSgJ+UxvPXCJ21Uy3QV8JB3hywm3Nj9qeftq/NMwzjNLYADAXzFMzHIAQfRrey6ZGTTAEzZeBs6Kz9X5owUz+YcDx/++2XC7G4Be9ca4vbyOA42jvQPC+815HMM9+fsoNCsM0YJnlZuTj/7T5fLFZ43raFNsEY/B/DYT+W7qEvSutWfqKjmkK+M9tUXMPtkOehcD+si0MmPrSg7y/EwZAk83Z/b9WlaKaa0e/BOOo3jHo/0Nn/GFXAfrpEabBKAB+W8LAJYUDT+kgBLPuk4H3Yh24nTj56mXE8f9XnGlJ+x7YftC6BeFV5/HzxOcg4CLx06CWgdWY13CU8iU1rlbCoP2vtjiQgj+sIOCKAxcUC77a+aJa4UM90MmrMnD61VJQ8uQKgPp2hpkxsm94hbGNJE995DWLeuCmqeOw4EB/Ay23950jrg2s4LflW+4iRmvQheFAjk4Ik90rL5b/l3mlJT1eZLByIQd4fvMjv8OFt21bKD5v4zN/EsEBrMrwpKR46V8V+JzmbHsveDVeDK5+GQWAGWOemuHAqnMttlb/kw6CYRhznA68BmcFHOgQKSx/nlhBzrJZ0M5LywIlFMA2BCR6omjgl0KBaeYwP07B4CMeitHxdl7zp/oc4P5PUIClkuds4zDx6UGnbEYBqH5TGwoCcgC/jHsDZvEFDsFgBkBfnNIP1LwBjJ80eYRcnxocAPXXREsJdxcJei5CFRAVCH/ObwscLeQapEE5cN5e6P+qx0hGoLax3zDnc/SHXP9g/zcKADPIPDXFAbhwLWehXll9IHCa54mTKstsckXJAXinOztKfBIXto9eea3Vds0ro2ruDSPA+zxnhlwbp3DgOIcQsGGc8USbtC0Rp3C0earLgX6Lpnm2cZDZv7PdcQHQgGtqu4JGAahuO5vSK+AA34SHzU8tx85wFr7ii3YqqIrJ4sKBcbPFZ3Di4EsuSaGjsK0QyPte6AI1IOiaaj0H4dDjKiDchINTCLCCwI9bvIjo9kYN9a4XlK2LxE6o66FDFDm3ti3VlsywoelLVD4aBUDlhgnXDAfQce/TQSyMAXdkf/46cBuc/jiQztAsf5AVQKXolgpyJS4LluvvdxncB+lUhXuwFYHtYQz41UFEJhQ3B6CkthfKdLadmxKgtrUzzIiUOKwe/aqAGwGjAKjcMOGa4QA68q26iMWRqPN04TZ4S3Ngy07RjGX6Y0pDVZbKy/9wffzHynInKxdWwPL9Xxnc1YG+SDlg0lVB4pVnMF6fApYsNiaOmllLxXi0Vd4YmduDH7XtOMzPYFsNTZf5bED8kflz1N11iPV7Gc1vowCo3DDhmuEA3Ncu4wFdB8H4UeyOVYD9dOA2OEtzoMGiWViF0TIuwcr9+tKl106qPZCzO2M5uDPpalgKATWOw044GVcsUD47fYnY34Y1f2LlQLbPx61/zjZU204NO9s+Rdc5K6Plh+YsxHwbDujgAGbqN+jAyziBO3/tqq4CDN4hHNhqjpgApe7UIQkRRABvLp2iX0aAKjkoLNRHHfDVsHPw5zR+5FtNV/MNhNNZ0//jbuj2+8UEKHGn2eW6KWYu7eQJywkOeJxyGtL/jQJgc9D8qUUOwFDsOh7YddCOH8buzXPF6TpwG5zuHMB1tzdg9p9xTw0ZC+c/3TOsN0JiSVT29Y3KioZjsLcJVYW8FCiyBiq8E47TUrRb2yLxHQlu3vo5gGuZbyyUwm3Aj1vbOOPdYNX2RRhbpsvmTLXyF0nZiPN/jAKgMMMEa4sDPKBDCSiyao2yBhBGXWMvExtHidPgcucAH78Ev7/gnho+FkZzQ2Y/4bFWF8Olk6x3cJXvXTYVfgWFVATk2014DOLqnLbI9P84Wtk+fmnR3rbA5wIH26B8WG1LGXbk91otNQpAHK1rytDGAWi2Ovd1x2TW0WXaiDeIbQ7w5UipLM3Xxo4cvWX10p3a8FcTsRiYNTpmfAVBosarQqG04M8LHYs2aiSzFaC7eVsfFBthvj+vsD3jp23KwajtLujtfhpQFB2VMQqAgyHms7Y40NNq3YG1Mj0+AZgVKTp5fKc4rLa4UlvUinV0Lfi8mS6q0T8u6+6ACjAMn64pFnvF7PE1Y1SFgqoMeIXz8Ke0LhaHD0PWJadKvDfPXv/k49UepeI5r7N9ZRyUuEumWB9L9OrbKAAqN0y4JjmATqxv9giOYPnslnFdYsuaZE7CiWY7C/D3KI1kvt+/jn6iEX/1UQuaaxNRTkCo6aqw8AoPwONc+q9mPCDGVr+iw4+C9kXi2+DvkUXC26s9SsUza5ztm2fXR/Aq+FMvzhkFwIszJr52OLCWfo5ZHl8SpOsZkxb0O8IFHboKqEe8LXPEDmDolTrrnrPo8lUd1hqdZVQbd9M4+zTA6yWFCBOpChBVWHiFJTy2AtJp+q3p/9G2dPtisQO2MBfYWL3aoNJ4zmc3OV3mNfvndDOgMRfMU9Mc4OVdrXvIzB2L9mgZRbNrmlEJIr6lQzRBON+LEahJF1k4IbK6oYmu0IU/KXg7drL6MIu8pIgeN8ExIBRsRYCB3WBkvHyzEoBHCNq9da+BlQaOME8oDnQsE00Q/veiDZp8tcdAO5RsMyeMoNWULq1gGwUgVDOazInhQJ+tSb+vk55clmbAHuB4nWXUBW5eSWmiu2H1v63O+qbS9NOXzrI+1FlGUnA3NtFVoOVdmx6nIODIUsJehWdY+c1vqTTgjZMU57YtFicwiHlCcAD9v7eX7gaft7ax+G0b2S6yTdT2UcMDpEHBuGrg+mhPYo0C4Mkak1BLHOBVgKzQawsAgZXCfvWvx88Rh9YSb5JG6/iR8Ehm0WSddGH2v6YvVT8W7B2TbCPHS23hXYlAkcJFFSQqnsH4W2C1PkVn2w133G174eRSCv1f5W/Q8GB7FG/tyHYk6usj6irHS6MAlOOQSa8ZDkCr5v007c5e4FL2dqwEaDuzXjMMr4DQ5jliLmaS36wga9AsF60619JpFxKUHu3wA8Zeb9oFsUDhp5SgcINRBZGaV4m3snRX+0Kxt43f/AnEAdz01wXBf0phlUXha0mFgEtxtoczTqbzm6jj8qnWewxS6jEKQCnumLSa4sDbHdZq/Eim6SYaKwGjsBJwP4TZjrrLGk74wa+zsCzfprtOmP2/0rOufmb/kp+2sZeg7xWEixQIDOA3zLBSMVCFk5qfqAFK8MKBa2s5h3l8cGDGYnEWxo0ZvttCtkNeoBdv47jFDcL3NDX66/9GAfDRcAakdjjQ3WbdisFpeQwUj8GP+ZGWeWLXGMqq+SJg8T8DguXyOCqCQe1b1GHB90n9PZ2HWL+DgHmoIiEzKEBsw78iHGoah3EyAEYBj85cYvq/n14Gt8qt8MWf7//Mv9ICfND2QlW81LAXDsBk03QKtoR89X+jAPhpPQNTUxzAEuU3sQim3fEL3BBvCsPAx1rmiok1xaCYiYXNxFWwRu5iGwrdRUNy3dHdbi3XXU6S8cPx+7dAX1+RkGGCVQHiJ6wKGYbnR4nDyYAxWG15zNwcaHPG8w/c/F4NvnWqvPMM+2kXl7aw8YECdg09f7L1iCcxjgTtP0hHeebTcEA7ByAAurMW/Vh7QSgAQm00XotbOsWxcZRXU2V0iAxm/v9tpenMOOhmw791KSyB1/kz71BrJY4FzioSMn4FCwt4fpxCRo2XYX5bNBo3By5pWyjyd9jXOe/V6uOoXwanJm6D6nS6He+nDSRv/cA6YQT1jhTBfmtGAVBbzISHDQdebbPmQCA8H0uFUtSAgfC/WrrEWbGUVwOFfLJDjB4/ih7EzP+YGMm96M3p1lsxlpfYouYeYl2GY2BPy5lhkTLgV8g4lQCuLeeV8fLN/T9Fv8Ey9/cTy5CYCTt3sdigtw9bMURHe7aB5J8bT9U4P+F8/To6pgTr/0YBiLljmOJi5IDAjy+GrQClRldiO+DGLTvEKCWu7oJjZ4tdNmiipzALnRhX5UWW/gLDP60uoeOqS1Tl5DJwsZxzbAVIocNvFiz8eIWdgscJq+bnNIt+AiXgBhZ+/FmvD9tFZHL0V/B1X5sHYXgu8zrbwhkv6G9+Df/UdjEKgMoNEx5WHOiZafEKgPZTAUVMw+VBI0bSs+Pnic8VxdfJB1ZBfpBJ0RMQBhNirPL7uTQdAcO//D51jAUnuaj5B1ovYwXmDFdBX06gcMWcigHHqflUITQIf0oGKw/1ahyI45HnYOXxcahWEwq8koqSyjuvsJPnMm+peKKPYJB5uF/DP24q+eBIrnkMB4Y3B8Z1it+mLVy4EeeTn3md390HF611IJg2ny82G5mlX2HQmxwnm7msbI6mvNpuLYm73Fopz96HFvQ1V0VAFSxcIee3M86ZLr/lWzKF+79FP+r8E1Zl6qD/dywWm/Xm7P5/0BDBL3kj3+V4WirdBQcM/6bC499iyfogb7MCEIRbBrYmOQAHQSdjargyVuJ5XxSW7+Mb6IlhvRoAt6a4KfG7jevpf6si/OED3wj/0j27qYFOgmDvsaFcBEghngPqzJRhnXHOdDlDdcbn7WI62/akPw/r1QD0f7Z9WEfo/6p3P8kXld8qj9zSJb/VPGXCOIlxRaXCP9+0dgubP4YDw5sDY7vEHqkc/QFW+1ihjPfBkmAOS3S3rE3T9OFkpMbeEGFodi3qVhWHSLzvv6KP9qyHGWbYHstCGEdWn4CQaiia5ZcRMHa5XjCcKNPkWxI69PvGJotagxqpSXRJfLM3RPgcuRa0fbqgOHkJdin8/aZzhVUeqmGZhn3/zidojzD932wBMDPNUxccGD9XnIqz+9dXq7J8TA0DxlXpXprd3WFpvbhIZx3Z+RFmHuzSd6rOckrhhjB7Dw5P/uO1VivelZ1SRCU8beAin1tsMlWBUmlYzcdI5bd8q3H5cC8UxgXso96Pm1rOksTHVqaEfTPooUPo86q7BPSb7gUn4wV9gPHkM3zkU6Ku5G0UgEq4ZvLULAcgvOZioNLujrYkgwR9iIFw/ppeusJ2X1wSODmJW88RE/rTGPhydGQcTn28am4rUina/9VW6y9eMCbenQO4g/7H6Hvn2alSmPCHV9hvmprfRl4CJ4QXFOFLskSXl7qrXqJJyrv9fjFBZOhi8GqoPYVafzXMxMtv+Vbj1LCazvH8qHEyzNf8CjoAXh+fzANV/tcoAJXzzuSsUQ6wc5qYz6e7ckrk6B2sSMzOjKRfJvnaWvBrh1yKZmGp/0TXisQcCVoO7plu8Rlr81TAATjtuQVL1sfZy9acXwqWSsJq+RKPfJfChzQIn/egTM7GccXry11bqxYTdxhK0w74rZ6H7ZPBq5D91DEojMovNa8aj3BG0MEXT42m/xsFIO7eZMqrOgd2+4UY8fZ7tByz2GTc6AdfBfBc+AAE7K83HUP3PnWGtb7aTLKt+nN0PPbZT4Anv92rTQ+Xz7YUUJiOXtFq3ZkEemqVho7nREPvq7Qc9O8ZWgmQgkq+JVPUb7ewGocTAyJN98GF9y1NzXR/x04Wdgmq+7BV/7ocnYjVkuMh+HcrKEkq3VGHVXxcffmtvgUdZd/3EBF7jAIQESMNmtriQEuHGJNrpKegBGydKMpz9CEGnFthfv1gbgQ9vPKc8ld6RkU/326IgXgijgYdiYHhwKjwRoUHCsAZPe3WNVHhq2c80xaJjRvFwHl1yQgpaPg7aFjN4yevN/wHKJtX6B6CAF4ap60A326Ifr8vhP5RuOjLvf/Lusm3Wo+wYTW/il/GE32vc6r1c/6M6jEKQFScNHhqjgNbdormBtxoBsLHJ5V4XOzyPNzbPIJB6WEcX3j2lZnWC1HQyq56G0fSjhgAdocv9/2hcByEq3o3jgK3DhwwOjx/RZt1sQ7c9Ypz5iKxBfrXH7EK0BzZSoBkpirA3MJqnFuewbjn4FFyORTTR7Au9szcw6Lp/+ytEN76dkS9eRVkP1Z48RvL939Jm9d7kLby3hQlDs5TLqymO8oAbed3TYm+/xsFQDLavOuSA7zU3dhPy7ASUJWjbJUwHYPBy8j3IgaU5yG434WTo9XYS/0Qg/lqbCOsRlovlso3hNAchbgNYXA1Gt+jMZC2IM92eE/AKsNmlZRdjTxG+Ovjuu3ARtDDKCF/lI2LUgWRn7AkT8LKdylcapoKXypelkP0Evr7K+jXz2Om/g7o/QD9mfv9x4jj30Evrt7dEIrzaKSPRvoncvwbIPp3wGyP/9tC6H9yEN1AyEkHRzvjSn2raUHDkhiZT77z8ed1TrFmS5Ao30YBiJKbBldNcmDsZWLjzDpahkFkl5qswDAlGkv+/RjAT8bM/zfDtIqJqFbrg2Ij3B6/FELxs/iPHSA8qgDyCqtwKowa7xX2gveKZzxhH4nb6834nWnl4tT0SsJqHlm2jOO3RSdB+P+agzoeowDo4KrBWXMc2HaB2HD9alqaFIO3mmNgxATzUT+4bDrCWPtHzFgPdPaSuMDtjRbtXRCCDOsUSkEUBK+8kgaZLt+l4iVM2LezDL/fbnCSFk6rNKzmU/FgFQNtcRiEP6/OaHvy2p429Aax4UBtcICP4a3vw164wEzIPFXlALY13oEitq8R/vE1A5/H77foYJT4gL0KwIKJH+nBLoow45B4VcGnluGMl3mk4qG+3WAlLhXOSbuaj8N+0t3gZFnO/KXiGVYtX4WV8YLexpbk3rqFf55s/msewwHDgQIHmjvFAuyl/2chwgRi4wBm/i9hVnJwd7vVHVuhpqAiDsAa/kfYernQjpRCiT90hyUVshz5VsuWcfLtluYWp8Kr6c4wf/OjwsuwfHul+4n3wsF5+clRd7qBJs4+0FqRj9D712wB6OWvwV6jHGiZK07B1OBaaOIwvjdPHByAceOiNWvp6FryjhgHX6pRxnmLxEH9RHdgBWAjV2HIRHkJs0rj/eRzluv89sKhwnnByHj5VvNwmB+vNK94Zx7nt8yXfy8Cz4+J0zuiUQC4QcxjOODCAVwjvB8siX+X5ONxLmTXXBRm/TlYb5//aps1p+aIH8YEz1oqxmfX0/1QAnayqymFFX/oDAfBHQRWbaug+SqF95/vR7os/dVqO8NGAXByxHwbDigcaL5cbA1znHtr6ZigQn7ig+wOGf7VjzP7/clsKjYOTBNdiaOj37TtAZhM/0LN/4kCFadkhRrnFQ5KjxeeqOKd9Di/neUQfYQlxqOicu0rWef3bRQAv5wycHXLAXYd/O678AVu4RIhvk7VPJFwAAaXf8XM/3Bc6rMqEoQGiTYOtC4Wh0MJ4Js0N4lFEXAKSmnUFyaeuSPzy7capyNcohz0/WfTgg6dM9V6nYuuxmMUgGpw3ZRZkxywXeVadH06RXvVZAUSRDRm/rNXtFvnJYgkQ0oZDrDToLUWXQ1F4MiCIOU8JYRcxcqCDrwqnbKuapyOsEc9IHgvnjvFOl+SUa23UQCqxXlTbm1yoEOkmhvo+xjYZmNbYHRtVqKKVAt6FDP/b8Kn/ytVpMIUHYIDbUvEKbBWvwK/gfgMBJneMAJa1lfikG9nfNhyVLzu4UcgdL8D4f8PWXQ130YBqCb3Tdk1ywH7HoEczU/CtcI1wcQcvQWBcXZ3m3VrTdBriCzJAdtAsI9mY0vshFCC2V1IhhP2Kk6uhfyWb1kz+S3fKmzUYbjsRv+fptOrn6xWkLdRAIJwy8AaDjg4MLZL7IHLdH5mPAg6GDPwye58MfD9dG0vnW+O97nzqJZj2xaKz4P+q9HG7m6EuXJxCNhKbQQk81UaI6YZx1sX4Lrv8+I83ierVe5tFIByHDLphgPlOIBtgZYmOgYDXRdmRM3lwOshnV35Yq/4pvUp6lzVZvXUQ53ruY5QBI5D/eeg/7fYfJACVb45MqnhqOlifER9qO/N2QaaN/9Aiy/vSuRjFIBENoshqhY50NIhmnBG4CzcPDYN9gGfqsU6REDz+5SlBf1NdOXKc6z3IsBnUNQIBzqWiabedXQ2yOX/m2NVYOgxQK5L1AI3LE6/+f3A4WZCeFH8Sa+gyy+fmvz+bxQAblTzGA5EyQGsCIxrosPhTvg7sHafDGUgPxBGWUbycK0ASZfRWrqmu8PqTR55hqI4OYAVga+ivO9ACTjIVgSk0JdvJqbWwl70cl3gwhf1vLSpka7rmFQ7/d8oANx45jEc0MSB5rlia5z3PRMeBU8dbh4Fscy/GoPeXULQr15dRw9RB2ppHsMBhQPTl4ptUuvpdAiaMxD9CVsZ4HQvYVqNeD9lyjoVw65GPe7OWHRjppGWQ/DDk29tPUYBqK32MtTWKAfYmdA779PhOAJ3Ajv/wJpAUy1Whd32YhBfBvpv7l9Dd6zqsNbUYj0MzfFyoOM50dDbQ4eJNJ1oZelL6D8NWpQArlaxkOb+OnQrQoWRrFDj3MIcZ6OnZVaKbukXdHsSDftkdfy8jQLgh0sGxnAgQg5su0BsuP5jGA2m6QQYyk2MELU+VDi/j+HvflyNdHP3DOsNfQUZzMOdA60Pio1SWToG0vTr2C8/sFBfN6ErE73S/MQzjnJw5dKJHgGOhdAkbq6m5z7JjqjeRgGIipMGj+FABRwY1yW2TOVoKmYUe0LA7oe5yg4VoIk+S456YMx4d9qih9atpYfMTD96FhuMRDMXiS1wTO5L2EbaHfyYiNn6toUZOzOovGAuD+MHh1oWwxO9CeX8zlyKFmeJHq71mT5Xz+0xCoAbV0yc4UCVOICTBGNwlmAfDHx7Y4VgHwxCrBDoPlGwAoPwSxgMXobR4v9gaXPJazOtF6rEAlNsHXNg2iKxcYNF+2CmvQf65L74HUwAO8KdKGB+llICBPXATudl/NZehvLxP1iVeCgpnvp0dwWjAOjmsMFvOBCSA1t2iFEjRtEOMLGbgBnJBMxPtsMA2QxhPQoD1yigb8JJg1EY5EZhANuQi8tl6T2E38Og9j5WF95DnvcxoLI3svfwo1+JWc0r+H5lZbv1UkjyTHbDAa0c4BsJoRRshz79afT37dCnJ2ClbCz69Gj05yb0+w3wbgQR3P/z7olxyx7i30TcR/j/LuA/APz/If/76P//gi3Cv1J99K+5h9W3ovv/suZb7IzTWt8AAAAASUVORK5CYII=;" vertex="1" parent="1">
                    <mxGeometry x="670" y="80" width="80" height="80" as="geometry"/>
                </mxCell>
                <mxCell id="63" style="edgeStyle=orthogonalEdgeStyle;rounded=0;orthogonalLoop=1;jettySize=auto;html=1;entryX=0;entryY=0.5;entryDx=0;entryDy=0;entryPerimeter=0;" edge="1" parent="1" source="3" target="35">
                    <mxGeometry relative="1" as="geometry"/>
                </mxCell>
                <mxCell id="64" style="edgeStyle=orthogonalEdgeStyle;rounded=0;orthogonalLoop=1;jettySize=auto;html=1;entryX=0;entryY=0.5;entryDx=0;entryDy=0;entryPerimeter=0;" edge="1" parent="1" source="3" target="19">
                    <mxGeometry relative="1" as="geometry">
                        <Array as="points">
                            <mxPoint x="200" y="480"/>
                            <mxPoint x="200" y="719"/>
                        </Array>
                    </mxGeometry>
                </mxCell>
                <mxCell id="65" style="edgeStyle=orthogonalEdgeStyle;rounded=0;orthogonalLoop=1;jettySize=auto;html=1;" edge="1" parent="1" source="3">
                    <mxGeometry relative="1" as="geometry">
                        <mxPoint x="280" y="319" as="targetPoint"/>
                        <Array as="points">
                            <mxPoint x="200" y="480"/>
                            <mxPoint x="200" y="319"/>
                        </Array>
                    </mxGeometry>
                </mxCell>
            </root>
        </mxGraphModel>
    </diagram>
</mxfile>